<?xml version="1.0" encoding="UTF-8"?>
<svg version="1.1" xmlns="http://www.w3.org/2000/svg" width="1024" height="1024">
<path d="M0 0 C337.92 0 675.84 0 1024 0 C1024 337.92 1024 675.84 1024 1024 C686.08 1024 348.16 1024 0 1024 C0 686.08 0 348.16 0 0 Z " fill="#075DD4" transform="translate(0,0)"/>
<path d="M0 0 C1.7394773 -0.00676393 3.47894857 -0.0152575 5.2184099 -0.02532321 C9.98051914 -0.04778246 14.74233667 -0.04539957 19.50448227 -0.03875387 C24.64701351 -0.03587449 29.78946405 -0.05594303 34.93196106 -0.07290649 C44.99850948 -0.1022364 55.06495762 -0.10955687 65.13154437 -0.10833099 C73.31250544 -0.10749826 81.49343483 -0.1133626 89.67438889 -0.12395668 C115.39823609 -0.15662271 141.12198571 -0.16562113 166.84585063 -0.15686695 C187.14157066 -0.1508812 207.4370494 -0.18130538 227.73270924 -0.22848966 C248.57503303 -0.27656699 269.41724056 -0.29866789 290.25962102 -0.29317886 C301.96011665 -0.29060099 313.66038094 -0.29861573 325.3608284 -0.3342495 C335.3183643 -0.3643368 345.27554836 -0.3701634 355.23310281 -0.34444048 C360.31377063 -0.33200114 365.39377669 -0.33087047 370.47439003 -0.36014938 C375.12555336 -0.38666357 379.77551593 -0.3808587 384.42663758 -0.34931944 C386.10884138 -0.34358384 387.79113577 -0.3496663 389.47324081 -0.36877545 C403.60245975 -0.51844149 403.60245975 -0.51844149 408.68973827 3.8563242 C409.78034109 5.05270265 410.84144364 6.27676602 411.86849976 7.52812195 C413.10369872 8.74490779 414.34854793 9.9520372 415.60621643 11.14558411 C416.90346421 12.4399851 418.19805041 13.7370576 419.49032593 15.03642273 C420.2052269 15.75117767 420.92012787 16.46593262 421.6566925 17.2023468 C423.99399918 19.54034404 426.32775293 21.88185316 428.66146851 24.22343445 C430.29693516 25.86076929 431.93262504 27.49788118 433.56852722 29.13478088 C437.8578927 33.42794799 442.14424796 37.72410815 446.42996216 42.0209198 C450.78982372 46.39101602 455.15251828 50.75828199 459.51498413 55.1257782 C466.55826926 62.17783509 473.59982242 69.23161577 480.63912964 76.28764343 C485.45039478 81.11016019 490.26479244 85.92945108 495.09213257 90.73588562 C499.49068354 95.11662836 503.88617109 99.50043141 508.28060913 103.88529968 C510.17853441 105.77872363 512.07770006 107.67089106 513.97787476 109.5620575 C516.71979353 112.29190463 519.45852142 115.02491729 522.19662476 117.7585907 C523.05072937 118.60753403 523.90483398 119.45647736 524.78482056 120.33114624 C525.96174469 121.50795708 525.96174469 121.50795708 527.16244507 122.70854187 C527.85573914 123.39961533 528.5490332 124.09068878 529.26333618 124.80270386 C531.8714359 127.60619536 531.99322537 129.38780664 531.99154758 133.11584663 C531.99353863 134.0882127 531.99552968 135.06057877 531.99758106 136.06241047 C531.99466822 137.13826842 531.99175538 138.21412636 531.98875427 139.32258606 C531.9896087 140.45952247 531.99046312 141.59645887 531.99134344 142.7678479 C531.99299948 146.60348228 531.98747481 150.43907358 531.98202515 154.27470398 C531.98118746 157.0138807 531.9818569 159.75305655 531.98246765 162.49223328 C531.9829928 168.40284298 531.97984698 174.31344168 531.97422981 180.22404861 C531.96611353 188.76986424 531.96349946 197.31567451 531.96224182 205.86149357 C531.9600515 219.72547038 531.95339196 233.5894413 531.94393921 247.45341492 C531.93476457 260.9234667 531.92768399 274.39351689 531.9234314 287.86357117 C531.92316867 288.69343049 531.92290595 289.52328981 531.92263526 290.37829639 C531.92133026 294.54132692 531.92006654 298.70435746 531.91882336 302.86738801 C531.90845138 337.42097018 531.89083361 371.97454552 531.86849976 406.52812195 C528.95361233 405.72831249 528.95361233 405.72831249 525.86849976 404.52812195 C523.92054222 399.94639365 523.6249812 395.71226614 523.65731812 390.77690125 C523.66069687 389.47411728 523.66407562 388.17133331 523.66755676 386.82907104 C523.68110917 385.42016051 523.69470593 384.01125041 523.70834351 382.6023407 C523.71463112 381.13089395 523.71986545 379.65944236 523.72410583 378.18798828 C523.73736925 374.31672841 523.76174577 370.44562817 523.78945923 366.57444763 C523.83774845 359.68797752 523.87156292 352.80143513 523.89584351 345.9148407 C523.89852612 345.18312527 523.90120872 344.45140984 523.90397263 343.69752121 C524.69458397 325.87325888 524.69458397 325.87325888 521.86849976 308.52812195 C521.53849976 341.19812195 521.20849976 373.86812195 520.86849976 407.52812195 C539.17709015 407.37024882 539.17709015 407.37024882 557.48519897 407.16777039 C559.79785419 407.15607674 562.1105177 407.14588652 564.42318726 407.13749695 C565.60276001 407.11703308 566.78233276 407.09656921 567.99765015 407.07548523 C578.35094324 407.07115602 586.60543513 409.35690597 594.17318726 416.6335907 C599.70201436 422.81211869 600.65047711 428.68653443 600.36849976 436.93437195 C598.98139998 446.90415156 593.46063831 453.53243089 586.31381226 460.23124695 C583.54396648 462.83295512 581.09810581 465.60522629 578.62631226 468.4851532 C574.1827946 473.64950816 569.59260745 478.68986358 564.94271851 483.66874695 C559.36052836 489.65144898 554.01855998 495.71329062 548.89193726 502.09843445 C546.63295574 504.81095665 544.23878165 507.28320564 541.66928101 509.69999695 C540.77789429 510.60491882 540.77789429 510.60491882 539.86849976 511.52812195 C538.85505493 512.36730164 537.84161011 513.20648132 536.79745483 514.0710907 C531.80455157 519.97718642 533.10646685 528.37195811 533.20443726 535.66874695 C533.20334192 537.35875441 533.19902559 539.04876255 533.19165039 540.73875427 C533.17827115 545.18009658 533.19701818 549.62062732 533.22610474 554.06187439 C533.27152553 561.154371 533.28693308 568.24641976 533.2665596 575.3390274 C533.26692886 577.80031848 533.29256588 580.26042899 533.32025146 582.72154236 C533.37115518 595.54134833 531.35683161 604.98386924 522.23959351 614.4304657 C519.02966766 617.27021888 515.88883638 619.09728648 511.86849976 620.52812195 C511.01984537 620.86758238 510.17119099 621.20704282 509.29681981 621.55678993 C505.09096204 622.74841856 501.34220781 622.80846019 496.9958477 622.78818417 C496.10950036 622.79198984 495.22315301 622.79579551 494.30994666 622.7997165 C491.33077865 622.8100481 488.35180062 622.80612318 485.37261963 622.80227661 C483.21872112 622.80672816 481.06482426 622.81204193 478.9109298 622.81814533 C472.98461758 622.83234577 467.05835776 622.83398824 461.13203096 622.83354843 C454.7432881 622.83519484 448.35456693 622.84825808 441.96583557 622.85974121 C428.7198976 622.88141435 415.47397623 622.88999884 402.22802268 622.89477622 C401.50808706 622.89503739 400.78815144 622.89529857 400.04639959 622.89556766 C399.32501222 622.89582793 398.60362485 622.8960882 397.86037726 622.89635637 C389.86535264 622.89943895 381.87033132 622.90594383 373.87530899 622.91256905 C349.72529449 622.93221711 325.57528356 622.94862122 301.42526054 622.95144558 C300.65282335 622.95153964 299.88038615 622.9516337 299.08454176 622.95173061 C295.95420925 622.95210909 292.82387673 622.95247309 289.69354422 622.95283359 C287.33747471 622.95310531 284.9814052 622.95338199 282.62533569 622.95365906 C281.84679939 622.95374708 281.06826309 622.9538351 280.26613478 622.95392579 C255.80868442 622.95683069 231.35131312 622.97892165 206.89389038 623.0151825 C179.41517799 623.05592172 151.93651948 623.07960424 124.45777524 623.07990509 C121.52671186 623.08000191 118.59564849 623.08016863 115.66458511 623.08038521 C114.94288549 623.08042932 114.22118587 623.08047344 113.47761656 623.08051889 C101.87038483 623.08163811 90.26323239 623.09903777 78.65602618 623.12220453 C66.98619141 623.14506388 55.31648796 623.14883792 43.64663629 623.13465523 C37.32617469 623.12747938 31.00598738 623.12837347 24.68555641 623.15106583 C18.8968815 623.17164984 13.10869187 623.16906016 7.32002224 623.14819098 C5.22847743 623.14469506 3.13689765 623.14961034 1.0453987 623.16389542 C-12.06840345 623.2476743 -24.49121602 622.93951086 -34.60415649 613.3210907 C-42.2262634 604.37339998 -44.44319557 595.22927855 -44.38597584 583.76347542 C-44.39078555 582.3257591 -44.39078555 582.3257591 -44.39569244 580.858998 C-44.40399531 577.64652292 -44.39806706 574.43423413 -44.39219666 571.22175598 C-44.3952172 568.89558981 -44.39910619 566.56942463 -44.40378922 564.24326122 C-44.41301054 558.52031891 -44.41291796 552.79742953 -44.4088776 547.07448245 C-44.40454999 540.2178893 -44.41181042 533.3613207 -44.41936888 526.5047321 C-44.43460854 512.28946199 -44.43631399 498.07420968 -44.43384586 483.85893311 C-44.43201315 472.881899 -44.43377234 461.90487074 -44.4380703 450.92783737 C-44.4386727 449.35073375 -44.4392739 447.77363012 -44.4398739 446.19652649 C-44.44078115 443.81997857 -44.44168982 441.44343065 -44.44260625 439.06688274 C-44.45103575 416.97118391 -44.45537149 394.87548728 -44.45119953 372.77978706 C-44.45104316 371.94683419 -44.45088678 371.11388131 -44.45072566 370.25568744 C-44.44991988 366.03395988 -44.44907411 361.81223233 -44.44821236 357.59050478 C-44.44804128 356.7520575 -44.44787019 355.91361022 -44.44769392 355.04975545 C-44.44734726 353.35421165 -44.44699873 351.65866784 -44.44664833 349.96312404 C-44.44129077 323.57868955 -44.44922255 297.19428848 -44.46768188 270.80986023 C-44.48839734 241.16597944 -44.49912549 211.52211936 -44.4951064 181.87823093 C-44.49471105 178.71749997 -44.49434951 175.55676902 -44.49400902 172.39603806 C-44.49391829 171.61778742 -44.49382755 170.83953678 -44.49373407 170.03770279 C-44.49256807 158.28892679 -44.49921661 146.54017169 -44.50982094 134.79140091 C-44.52186851 121.43000811 -44.52343698 108.06866137 -44.51103077 94.7072679 C-44.50498318 87.88889686 -44.5036829 81.07060792 -44.51603317 74.25224304 C-44.52685195 68.01112147 -44.52383628 61.77016557 -44.50977149 55.52905189 C-44.50711352 53.27071628 -44.50952542 51.01236785 -44.51750735 48.75404479 C-44.52760555 45.68398017 -44.51919769 42.61449232 -44.50623035 39.54445076 C-44.51719437 38.23000989 -44.51719437 38.23000989 -44.52837989 36.88901466 C-44.43045484 25.70022454 -40.96018675 17.65764388 -33.31509399 9.6179657 C-23.5016031 0.28028042 -12.84745109 -0.05793922 0 0 Z " fill="#E8EDF4" transform="translate(249.13150024414063,186.4718780517578)"/>
<path d="M0 0 C0.96033142 -0.00860046 1.92066284 -0.01720093 2.91009521 -0.02606201 C4.50356529 -0.03245193 4.50356529 -0.03245193 6.12922668 -0.03897095 C7.24139557 -0.04714844 8.35356445 -0.05532593 9.49943542 -0.06375122 C13.19869946 -0.08866659 16.89792494 -0.10513802 20.59724426 -0.11953735 C22.48775229 -0.12752287 22.48775229 -0.12752287 24.41645241 -0.13566971 C29.71361213 -0.15691436 35.01075827 -0.17604315 40.30794811 -0.1872921 C47.89927576 -0.203518 55.49009039 -0.23665053 63.08122462 -0.29369295 C69.06184498 -0.33709904 75.04223228 -0.35304111 81.02301979 -0.35942459 C83.56636007 -0.36615019 86.10969252 -0.3814059 88.65292931 -0.4053154 C92.21313427 -0.43687234 95.77204404 -0.43701692 99.33235168 -0.42959595 C100.38454391 -0.44600128 101.43673615 -0.46240662 102.52081299 -0.47930908 C110.50192003 -0.41117627 110.50192003 -0.41117627 114.19314575 2.50286865 C117.30596542 5.99788325 117.67945006 8.36883853 117.67453003 12.88050842 C117.67659203 14.33813599 117.67659203 14.33813599 117.67869568 15.82521057 C117.6751004 16.88975967 117.67150513 17.95430878 117.6678009 19.05111694 C117.66794693 20.17321564 117.66809296 21.29531433 117.66824341 22.45141602 C117.66754549 26.16866982 117.65975869 29.88587382 117.65193176 33.6031189 C117.65006715 36.17715935 117.64864345 38.75120016 117.64764404 41.32524109 C117.64421309 47.41315543 117.6363277 53.50104914 117.62629455 59.5889557 C117.61511972 66.51996708 117.60961951 73.45097932 117.60459912 80.38199747 C117.59414473 94.639308 117.57655381 108.89660344 117.55427551 123.15390015 C118.44519394 123.1450177 119.33611237 123.13613525 120.25402832 123.12698364 C128.65533599 123.04679301 137.05651489 122.985913 145.45811749 122.94665146 C149.77736441 122.92578794 154.09629476 122.89749328 158.4153595 122.85214233 C162.58453286 122.80863987 166.75340197 122.78475374 170.92278481 122.77439117 C172.51241151 122.76700764 174.10202181 122.75258911 175.69151878 122.73097992 C177.92046801 122.70188606 180.14816461 122.69794644 182.37727356 122.69979858 C184.27922737 122.68647491 184.27922737 122.68647491 186.21960449 122.67288208 C190.14123405 123.23856747 191.7699124 124.39234831 194.55427551 127.15390015 C196.45633807 130.95802526 196.27826095 135.02900834 195.55427551 139.15390015 C193.67960301 142.29206666 191.16849241 144.62213536 188.55427551 147.15390015 C187.16938666 148.68668975 185.7949408 150.2289584 184.42927551 151.77890015 C180.63812295 155.98552149 176.79000651 160.1363479 172.92927551 164.27890015 C168.95267068 168.54644834 165.02238388 172.83870392 161.20661926 177.2515564 C155.23561296 184.12597737 149.04169923 190.80045644 142.8540802 197.47909546 C139.67806373 200.91454403 136.57569011 204.4006287 133.51911926 207.94296265 C131.3519395 210.38157844 129.12665382 212.75890683 126.89460754 215.13803101 C121.55889626 220.82535548 116.48308928 226.6060166 111.60505676 232.6968689 C109.05846095 235.74793321 106.29558871 238.49900881 103.44880676 241.2671814 C100.95540154 243.75030453 98.67217122 246.38508943 96.37458801 249.0484314 C89.97144858 256.45463774 83.29030864 263.60535362 76.58747864 270.73910522 C73.4720194 274.06353858 70.42957713 277.41968028 67.49177551 280.90390015 C63.87855713 285.03842865 61.28004911 286.87098644 55.74177551 287.77890015 C50.19970852 287.54019689 47.23959268 283.93656531 43.55427551 280.15390015 C42.80919739 279.43202515 42.06411926 278.71015015 41.29646301 277.96640015 C37.15537151 273.92357184 33.24498926 269.74273329 29.47224426 265.35702515 C22.40394141 257.23783409 14.9594098 249.43787157 7.60456848 241.57919312 C4.40585543 238.15594742 1.23650446 234.71214163 -1.88322449 231.21640015 C-6.43506916 226.12206374 -11.11695962 221.15367522 -15.79704285 216.17758179 C-19.54095968 212.19408423 -23.26019584 208.19147929 -26.94572449 204.15390015 C-31.22079979 199.47227979 -35.5422814 194.83698124 -39.88322449 190.21640015 C-48.30185839 181.25435468 -56.63985038 172.22040179 -64.94572449 163.15390015 C-68.93971648 158.79417923 -72.93874631 154.43919056 -76.94572449 150.09140015 C-77.70272644 149.26865601 -77.70272644 149.26865601 -78.47502136 148.42929077 C-81.28319848 145.38348725 -81.28319848 145.38348725 -84.22697449 142.4703064 C-87.04726216 139.42403413 -86.83061108 135.29649204 -86.80509949 131.38046265 C-86.22996389 127.81712255 -84.22402598 126.27070129 -81.44572449 124.15390015 C-78.56828181 122.71517881 -76.10006526 123.03452862 -72.88468933 123.04037476 C-72.21140091 123.04022873 -71.53811249 123.0400827 -70.84442139 123.03993225 C-68.61513568 123.04062988 -66.38593313 123.04841525 -64.15666199 123.0562439 C-62.61252386 123.05810861 -61.06838514 123.05953226 -59.52424622 123.06053162 C-55.45701977 123.0643526 -51.38982894 123.07417933 -47.32261658 123.0852356 C-43.17355328 123.0954587 -39.02448424 123.10003117 -34.87541199 123.10507202 C-26.73216646 123.11580196 -18.5889499 123.13287337 -10.44572449 123.15390015 C-10.45033345 122.55552243 -10.45494242 121.95714472 -10.45969105 121.34063435 C-10.57014266 106.77660269 -10.65286754 92.21259579 -10.70478535 77.6482439 C-10.7305603 70.604973 -10.76569662 63.56198177 -10.82292175 56.51889038 C-10.87810585 49.7237603 -10.90713459 42.92892119 -10.9201107 36.13358116 C-10.92935974 33.53916534 -10.94742066 30.94476569 -10.97437477 28.3504734 C-11.01059392 24.72055113 -11.01567252 21.09183494 -11.01335144 17.46176147 C-11.03132782 16.38570145 -11.0493042 15.30964142 -11.06782532 14.20097351 C-11.01154987 6.08444573 -11.01154987 6.08444573 -7.9727478 3.00965881 C-7.13883011 2.39725845 -6.30491241 1.78485809 -5.44572449 1.15390015 C-3.85472894 -0.4370954 -2.20674555 0.01465047 0 0 Z " fill="#19B027" transform="translate(637.4457244873047,485.8460998535156)"/>
<path d="M0 0 C0.64957412 -0.00576922 1.29914825 -0.01153844 1.96840644 -0.01748249 C4.15463999 -0.03076405 6.33904828 -0.00825386 8.52518845 0.01396656 C10.1043188 0.01178696 11.6834474 0.0074105 13.26256633 0.00102073 C17.60916067 -0.01018438 21.95514154 0.00987407 26.30165768 0.03491104 C30.98602112 0.05646143 35.67034872 0.04919945 40.35474777 0.04539967 C48.47316082 0.04277524 56.59137328 0.05849046 64.70973587 0.08658886 C76.44755574 0.12718814 88.18527841 0.14024242 99.92316088 0.14652882 C118.96607519 0.15747761 138.00888253 0.19076769 157.05173874 0.23804188 C175.55238433 0.28392232 194.05300089 0.31932165 212.55369186 0.34058094 C213.69367328 0.34189456 214.8336547 0.34320818 216.00818101 0.3445616 C221.7270135 0.35108669 227.44584621 0.35740525 233.16467905 0.36362112 C280.62385494 0.41547235 328.08290013 0.50492761 375.54197311 0.61523914 C375.54197311 23.05523914 375.54197311 45.49523914 375.54197311 68.61523914 C326.94553354 68.70560328 278.34911406 68.77724439 229.75260718 68.81950046 C224.01963527 68.82450349 218.28666352 68.82968076 212.55369186 68.83496571 C211.41232626 68.83601495 210.27096066 68.83706419 209.09500822 68.83814523 C190.59695197 68.85556609 172.09894527 68.88711302 153.60091844 68.92385033 C134.63025404 68.961213 115.65961565 68.98346509 96.68891597 68.99159312 C84.97627645 68.9970906 73.26377699 69.01447431 61.55118057 69.04690501 C53.52714416 69.06799523 45.50318051 69.07445168 37.47911838 69.06924465 C32.84471687 69.06667429 28.21056065 69.07070504 23.57620239 69.09206104 C19.33716005 69.11145342 15.09852915 69.11255713 10.85946831 69.09883472 C9.32238695 69.09713748 7.78528045 69.10227368 6.24824896 69.11477187 C4.16499033 69.13073264 2.08323361 69.12223232 0 69.10743046 C-1.15890645 69.10894934 -2.3178129 69.11046822 -3.51183772 69.11203313 C-7.09991257 68.50700273 -8.27766104 67.47734976 -10.45802689 64.61523914 C-10.96596146 61.92799854 -10.96596146 61.92799854 -10.97560501 58.82446766 C-10.98821365 57.65968388 -11.0008223 56.49490009 -11.01381302 55.29481983 C-11.00571609 54.04059727 -10.99761917 52.7863747 -10.98927689 51.49414539 C-10.99310379 50.2020969 -10.99693069 48.91004841 -11.00087357 47.57884693 C-11.00676443 44.84590973 -10.99822151 42.11349621 -10.97951126 39.38062 C-10.95674317 35.8855154 -10.96983167 32.39164094 -10.99380112 28.89658165 C-11.01177367 25.55400564 -10.99917 22.21175631 -10.98927689 18.86914539 C-10.99737381 17.61694706 -11.00547073 16.36474873 -11.01381302 15.07460499 C-11.00120438 13.90666904 -10.98859573 12.7387331 -10.97560501 11.53540516 C-10.97242264 10.51044437 -10.96924026 9.48548359 -10.96596146 8.42946339 C-9.78330846 1.87694478 -6.3097439 -0.01033706 0 0 Z " fill="#566C9B" transform="translate(264.4580268859863,239.38476085662842)"/>
<path d="M0 0 C2.47460083 2.19796092 4.86150197 4.46273523 7.23828125 6.765625 C7.91246094 7.35472656 8.58664062 7.94382812 9.28125 8.55078125 C23.07272378 21.07597201 32.09481507 41.2830929 33.45800781 59.74072266 C34.29478216 82.2527652 31.45047643 105.01183455 16.23828125 122.765625 C15.62082031 123.57386719 15.00335938 124.38210938 14.3671875 125.21484375 C-0.83807208 145.04392496 -23.3313642 155.440027 -47.76171875 158.765625 C-70.70339483 160.088205 -91.14060816 154.18179865 -109.76171875 140.765625 C-111.21191406 139.73308594 -111.21191406 139.73308594 -112.69140625 138.6796875 C-130.66254626 124.98496608 -141.38578654 104.34400351 -145.375 82.390625 C-148.03039777 57.49962371 -143.26366227 33.90777583 -127.43896484 14.11083984 C-113.13233737 -2.96314683 -93.06379471 -16.29718683 -70.55859375 -18.984375 C-44.43180365 -20.70465748 -21.0302886 -17.01460407 0 0 Z " fill="#3A80E6" transform="translate(404.76171875,365.234375)"/>
<path d="M0 0 C1.07779724 -0.00540298 2.15559448 -0.01080597 3.26605225 -0.01637268 C6.80005035 -0.02879706 10.33322373 -0.01241 13.8671875 0.00561523 C16.34000694 0.0054601 18.81282663 0.00396875 21.28564453 0.00120544 C26.45681568 -0.00017574 31.62770853 0.01233309 36.79882812 0.03515625 C43.40937317 0.06353948 50.01945617 0.06079952 56.6300354 0.04806614 C61.73286854 0.04109332 66.8355959 0.04891663 71.93841553 0.06132317 C74.37513828 0.06582206 76.81187245 0.06618821 79.24859619 0.06225777 C82.66075712 0.05932988 86.07229326 0.07592863 89.484375 0.09765625 C90.47999451 0.0931546 91.47561401 0.08865295 92.50140381 0.08401489 C101.67116518 0.18046282 110.17121841 1.69020086 116.84010792 8.34617043 C122.85742145 15.16531273 124.47999127 22.31805453 124.30981445 31.18383789 C124.31090965 32.7075853 124.31090965 32.7075853 124.31202698 34.26211548 C124.30857272 37.58473075 124.2698132 40.90590431 124.23046875 44.22827148 C124.22113296 46.54567703 124.21402047 48.8630925 124.20903015 51.18051147 C124.19002092 57.25355704 124.14097196 63.32599624 124.08551025 69.39880371 C124.03418679 75.60619913 124.01148816 81.81369338 123.98632812 88.02124023 C123.93284777 100.18166159 123.84760841 112.34163469 123.7421875 124.50170898 C124.4466098 124.49282654 125.1510321 124.48394409 125.87680054 124.47479248 C132.55473644 124.39424064 139.23253438 124.33354029 145.91084862 124.2944603 C149.34328518 124.27369242 152.77531625 124.24557687 156.20751953 124.19995117 C160.16433658 124.14768801 164.12099639 124.12867442 168.078125 124.11108398 C169.29519135 124.09043884 170.51225769 124.0697937 171.76620483 124.04852295 C182.16931237 124.04581449 190.44013805 126.29300759 198.046875 133.60717773 C203.57570211 139.78570572 204.52416485 145.66012147 204.2421875 153.90795898 C202.85508773 163.8777386 197.33432605 170.50601792 190.1875 177.20483398 C187.41765422 179.80654216 184.97179356 182.57881332 182.5 185.45874023 C178.05648234 190.6230952 173.46629519 195.66345062 168.81640625 200.64233398 C163.23295661 206.62638588 157.89057753 212.69026752 152.76171875 219.07592773 C150.46018854 221.84043501 147.99608834 224.33852973 145.4140625 226.83764648 C143.01005395 229.23042135 140.81961279 231.78955616 138.60546875 234.35717773 C136.61942122 236.64300603 134.5906799 238.88528312 132.5546875 241.12670898 C129.49166045 244.51570006 126.49608489 247.95048559 123.54248047 251.43432617 C118.0653277 257.894742 112.40938171 264.14485197 106.60717773 270.31469727 C101.64233153 275.59438737 96.86179193 280.98994533 92.1875 286.52905273 C86.58046833 293.15467929 80.86826268 299.67537699 74.9921875 306.06420898 C74.39083984 306.7306543 73.78949219 307.39709961 73.16992188 308.08374023 C65.82716236 315.98021604 58.15662079 320.3620451 47.3046875 320.81420898 C36.80669023 320.45468853 31.02573228 315.73677759 23.7421875 308.50170898 C22.78119141 307.57938477 22.78119141 307.57938477 21.80078125 306.63842773 C18.2753438 303.2076329 15.02755019 299.58456774 11.81640625 295.86108398 C9.21589655 292.90306542 6.54487731 290.01478273 3.8671875 287.12670898 C0.2781272 283.25400968 -3.2946498 279.36997476 -6.8203125 275.43920898 C-16.94428968 264.12102003 -16.94428968 264.12102003 -27.54052734 253.25 C-29.26461368 251.49478501 -30.87259689 249.67946268 -32.4765625 247.81420898 C-36.21172077 243.52044884 -40.09048228 239.37893025 -44.0078125 235.25170898 C-49.58866012 229.34725952 -55.12648995 223.41074937 -60.6015625 217.40795898 C-62.51164407 215.31810504 -64.4272879 213.23465137 -66.3515625 211.15795898 C-66.87782227 210.58980469 -67.40408203 210.02165039 -67.94628906 209.4362793 C-68.94217673 208.36191643 -69.93884088 207.28827246 -70.93652344 206.21557617 C-73.55851766 203.38499343 -76.12612902 200.51642171 -78.65625 197.60327148 C-82.21741657 193.51611204 -85.90857149 189.56496462 -89.6328125 185.62670898 C-90.94969411 184.22350912 -92.2661017 182.81986424 -93.58203125 181.41577148 C-95.74336045 179.11116502 -97.91185236 176.81399133 -100.08984375 174.52514648 C-107.59888522 166.4806344 -111.58931402 159.78854629 -111.2578125 148.50170898 C-110.39481175 141.11576753 -106.96342354 136.27300668 -102.1953125 130.72827148 C-94.00319026 124.51881712 -85.09495577 123.96103425 -75.15234375 124.32983398 C-73.9471257 124.35768982 -72.74190765 124.38554565 -71.50016785 124.41424561 C-67.6893899 124.5068508 -63.88022062 124.6287854 -60.0703125 124.75170898 C-57.47075361 124.82006302 -54.87114325 124.88648825 -52.27148438 124.95092773 C-45.93282784 125.11222892 -39.59522579 125.29755045 -33.2578125 125.50170898 C-33.26669495 124.24827194 -33.27557739 122.9948349 -33.284729 121.70341492 C-33.3660022 109.8603954 -33.42586779 98.01743287 -33.46506119 86.1741972 C-33.48588866 80.08622758 -33.51411805 73.99848406 -33.55957031 67.91064453 C-33.60320035 62.02971503 -33.62698597 56.14900229 -33.63732147 50.26792336 C-33.64468206 48.03015547 -33.65905527 45.79239873 -33.68073273 43.55472374 C-33.92176301 17.63070783 -33.92176301 17.63070783 -25.6328125 8.06420898 C-18.71313641 1.06899058 -9.36173364 -0.09090717 0 0 Z M-17.2578125 21.50170898 C-17.5878125 21.83170898 -17.9178125 22.16170898 -18.2578125 22.50170898 C-18.35359843 24.01989419 -18.37969397 25.54253295 -18.37806702 27.06373596 C-18.37944168 28.04956665 -18.38081635 29.03539734 -18.38223267 30.05110168 C-18.37863739 31.14154282 -18.37504211 32.23198395 -18.37133789 33.35546875 C-18.37148392 34.49678253 -18.37162994 35.63809631 -18.3717804 36.81399536 C-18.37108068 40.60705429 -18.36328557 44.40006483 -18.35546875 48.19311523 C-18.35360478 50.81485467 -18.35218078 53.43659445 -18.35118103 56.05833435 C-18.34806801 62.26672854 -18.33985502 68.47510519 -18.32983154 74.68349165 C-18.31866949 81.7498834 -18.31315972 88.81627597 -18.30813611 95.88267434 C-18.29767238 110.42236161 -18.2800735 124.96203505 -18.2578125 139.50170898 C-19.10892609 139.49282654 -19.96003967 139.48394409 -20.83694458 139.47479248 C-28.87003441 139.3945413 -36.902989 139.33369119 -44.93638802 139.2944603 C-49.06616485 139.27361293 -53.19560959 139.24534809 -57.32519531 139.19995117 C-61.31282679 139.15639065 -65.30013946 139.13255044 -69.28799057 139.12220001 C-70.8070159 139.11482685 -72.3260244 139.10042857 -73.84491348 139.07878876 C-75.97788011 139.04961723 -78.10954077 139.04575844 -80.24267578 139.04760742 C-82.06135666 139.03428375 -82.06135666 139.03428375 -83.91677856 139.02069092 C-87.93806657 139.59964708 -90.10748133 140.98459493 -93.2578125 143.50170898 C-94.40719805 145.80048008 -94.45622514 147.2563358 -94.5078125 149.81420898 C-94.53359375 150.5734668 -94.559375 151.33272461 -94.5859375 152.11499023 C-93.88831988 157.18932792 -90.5809053 160.39728283 -87.0078125 163.81420898 C-83.49621316 167.18260481 -80.29254625 170.72079027 -77.109375 174.39404297 C-74.11720226 177.80008559 -70.99822849 181.08373042 -67.8828125 184.37670898 C-63.79700644 188.71364264 -59.72323353 193.05380326 -55.7578125 197.50170898 C-50.024527 203.92341901 -44.09637832 210.16365845 -38.19970703 216.43481445 C-30.11482254 225.04012399 -22.0741414 233.68354373 -14.109375 242.40014648 C-10.80979556 245.99990088 -7.46998312 249.56184229 -4.1328125 253.12670898 C0.41087813 257.98174458 4.89892727 262.87760857 9.328125 267.83764648 C13.07500984 271.97255823 16.90245772 276.03172231 20.71948242 280.10180664 C23.72373064 283.31272225 26.69079637 286.53884054 29.5546875 289.87670898 C35.8751478 297.64129247 35.8751478 297.64129247 43.7421875 303.50170898 C49.31923364 303.86741693 52.11647368 303.88331093 56.7421875 300.50170898 C59.47967925 297.87476618 62.04894565 295.10567185 64.6171875 292.31420898 C65.29910156 291.58395508 65.98101563 290.85370117 66.68359375 290.10131836 C70.55602914 285.93752831 74.33277202 281.70182345 78.06298828 277.41064453 C80.7268269 274.38235808 83.48356391 271.44343627 86.2421875 268.50170898 C90.23512532 264.22344 94.18013728 259.92100788 98.00390625 255.48999023 C100.21475239 252.96117971 102.47815193 250.48298334 104.7421875 248.00170898 C107.58742978 244.88263887 110.4141833 241.75415507 113.1796875 238.56420898 C118.39300091 232.56950902 123.81766353 226.76292133 129.19921875 220.91967773 C135.76254684 213.80765795 135.76254684 213.80765795 142.1796875 206.56420898 C145.80363394 202.38138887 149.57474496 198.33899091 153.33740234 194.28149414 C156.59332772 190.76419627 159.78052893 187.19955678 162.91796875 183.57592773 C165.24050471 180.93509991 167.61352226 178.34184785 169.9921875 175.75170898 C170.68526001 174.99676147 170.68526001 174.99676147 171.39233398 174.2265625 C173.87602437 171.52426295 176.3656788 168.82758878 178.859375 166.13452148 C179.36307617 165.58892578 179.86677734 165.04333008 180.38574219 164.48120117 C181.3558 163.43057165 182.3277369 162.38167325 183.30175781 161.3347168 C187.54666028 156.73267862 188.07969003 154.14955886 188.03515625 147.98608398 C187.62756623 144.52972064 186.27942248 142.81507029 183.7421875 140.50170898 C180.79972023 139.03047535 178.19033728 139.38246134 174.90576172 139.38818359 C173.85193802 139.38796455 173.85193802 139.38796455 172.77682495 139.38774109 C170.45014377 139.38843884 168.12354223 139.3962248 165.796875 139.40405273 C164.18547611 139.4059174 162.57407666 139.40734108 160.962677 139.40834045 C156.71789998 139.41216178 152.47315708 139.42198881 148.22839355 139.43304443 C143.89836082 139.4432668 139.56832257 139.44783985 135.23828125 139.45288086 C126.73956766 139.4636114 118.24088182 139.48068323 109.7421875 139.50170898 C109.74495288 138.91363873 109.74771826 138.32556849 109.75056744 137.71967793 C109.81684097 123.405939 109.86647473 109.09221377 109.89762402 94.7783556 C109.91308826 87.85625 109.93416918 80.93424686 109.96850586 74.01220703 C110.00161819 67.33379899 110.0190341 60.65551946 110.02681923 53.97702599 C110.03236826 51.42729706 110.04320394 48.87757406 110.05937767 46.3278904 C110.08111026 42.76045698 110.0841561 39.19346537 110.08276367 35.62597656 C110.0935495 34.56861801 110.10433533 33.51125946 110.115448 32.42185974 C110.15532565 25.43294015 110.15532565 25.43294015 106.7421875 19.50170898 C103.75438052 16.85671353 101.90552037 16.1249964 97.92897034 16.1072998 C96.96306976 16.09595001 95.99716919 16.08460022 95.0019989 16.07290649 C93.9489003 16.0758371 92.8958017 16.0787677 91.81079102 16.08178711 C90.69657776 16.07331757 89.5823645 16.06484802 88.43438721 16.05612183 C84.74650703 16.03269806 81.05904273 16.03173097 77.37109375 16.03295898 C74.8104587 16.02586082 72.24982525 16.01816234 69.68919373 16.0098877 C64.32000691 15.99643057 58.95097405 15.99469889 53.58178711 16.00073242 C47.37973421 16.00737372 41.17827598 15.98450488 34.97634369 15.94741869 C29.00478672 15.91300868 23.03341305 15.90638586 17.06175041 15.9105072 C14.52318487 15.90881187 11.98461179 15.89912988 9.44610786 15.88136292 C5.89791636 15.85926223 2.35116452 15.86883166 -1.19702148 15.88647461 C-2.24809586 15.87321136 -3.29917023 15.85994812 -4.38209534 15.84628296 C-10.43150074 15.91627899 -13.43378992 16.34351473 -17.2578125 21.50170898 Z " fill="#EEF3F3" transform="translate(645.2578125,469.498291015625)"/>
<path d="M0 0 C1.25285412 -0.01261588 2.50570823 -0.02523176 3.79652762 -0.03822994 C5.19981693 -0.04219758 6.60310686 -0.04595143 8.00639725 -0.04951477 C9.48720481 -0.06040307 10.96800641 -0.07212949 12.44880128 -0.0846262 C16.53320164 -0.11639845 20.61757788 -0.13538182 24.7020638 -0.15215588 C28.20196652 -0.16814267 31.70180386 -0.19152854 35.20166329 -0.21498549 C47.74336231 -0.29889767 60.28513818 -0.35323544 72.82701492 -0.40229797 C73.81696917 -0.40624777 74.80692342 -0.41019757 75.82687628 -0.41426706 C95.48443923 -0.49260892 115.14202742 -0.5600233 134.79969788 -0.60443115 C139.12407087 -0.61436985 143.44844347 -0.62445845 147.7728157 -0.63471985 C149.38502858 -0.63853186 149.38502858 -0.63853186 151.02981141 -0.64242089 C168.42526183 -0.68510381 185.81995453 -0.78304991 203.21502408 -0.90320814 C221.07612316 -1.02556684 238.93683201 -1.09482417 256.79834485 -1.11337757 C266.82623657 -1.12518839 276.85284678 -1.16057974 286.8803215 -1.25614929 C295.42473501 -1.33750822 303.96765814 -1.37104989 312.51244166 -1.34284365 C316.86973488 -1.32993924 321.22385728 -1.3393424 325.58065605 -1.41059113 C354.43901099 -1.85823909 354.43901099 -1.85823909 362.30660653 5.19328976 C364.47392209 7.5479453 366.34851704 9.96428458 368.08335161 12.65196037 C369.54438063 14.8783454 371.32344553 16.7345697 373.15513992 18.66020203 C375.31638786 21.20799741 377.34627883 23.83331339 379.34263992 26.51176453 C379.87244461 27.22155457 380.4022493 27.9313446 380.94810867 28.66264343 C381.34642899 29.19808777 381.7447493 29.7335321 382.15513992 30.28520203 C332.76028147 30.33093573 283.36542515 30.36619897 233.97054971 30.38733269 C228.14487272 30.38983423 222.31919576 30.39242286 216.49351883 30.39506531 C215.33368492 30.39558993 214.17385101 30.39611455 212.97887062 30.39665507 C194.17555634 30.40536815 175.37225425 30.42114308 156.56894721 30.43950762 C137.28866674 30.45818157 118.00839266 30.46931343 98.72810352 30.47337902 C86.82203462 30.47612929 74.91600012 30.48482945 63.0099418 30.50103496 C54.85604524 30.51157096 46.70216657 30.51481037 38.54826368 30.51220478 C33.8372224 30.51091819 29.12624141 30.51295112 24.41521072 30.52361298 C20.10852292 30.53328909 15.80193643 30.53387399 11.49524413 30.52699982 C9.93128685 30.52614923 8.36732345 30.52873394 6.80337836 30.53496839 C4.68905077 30.54291164 2.57509635 30.53871968 0.46077538 30.53129768 C-1.30606332 30.53243684 -1.30606332 30.53243684 -3.10859573 30.53359902 C-5.84486008 30.28520203 -5.84486008 30.28520203 -7.84486008 28.28520203 C-8.10364914 25.70317078 -8.10364914 25.70317078 -8.11048508 22.47270203 C-8.1130632 21.3151239 -8.11564133 20.15754578 -8.11829758 18.96488953 C-8.1105632 17.75059265 -8.10282883 16.53629578 -8.09486008 15.28520203 C-8.10259445 14.07090515 -8.11032883 12.85660828 -8.11829758 11.60551453 C-8.11571945 10.4479364 -8.11314133 9.29035828 -8.11048508 8.09770203 C-8.10822922 7.03164734 -8.10597336 5.96559265 -8.10364914 4.86723328 C-7.57793185 -0.37803655 -4.4977411 0.02822579 0 0 Z " fill="#334D7E" transform="translate(262.8448600769043,721.7147979736328)"/>
<path d="M0 0 C43.43253596 -0.16020219 86.86504066 -0.28355752 130.2978138 -0.35745731 C135.42478 -0.36621231 140.55174561 -0.37527256 145.67871094 -0.38452148 C147.20974859 -0.38727574 147.20974859 -0.38727574 148.7717163 -0.39008565 C165.30131038 -0.42054958 181.83073414 -0.47574419 198.36022717 -0.54006957 C215.31948128 -0.60551724 232.27864616 -0.64440871 249.23802137 -0.65861946 C259.70399378 -0.66822708 270.1694848 -0.69857734 280.63530904 -0.75541527 C287.81094544 -0.79240105 294.98633277 -0.80360436 302.16205758 -0.79450964 C306.30302379 -0.79002343 310.44314852 -0.7969265 314.5839653 -0.83443832 C318.37696411 -0.86854818 322.16855717 -0.87019761 325.96162122 -0.84629226 C327.97988119 -0.84194207 329.99812502 -0.87209667 332.01614428 -0.90356916 C337.98108406 -0.8347057 342.00948497 -0.66261105 346.63799763 3.32651997 C347.78459521 4.52676723 348.90630738 5.75135435 350 7 C351.23872459 8.21319646 352.48384596 9.41992615 353.73771667 10.61746216 C355.03496446 11.91186316 356.32955065 13.20893565 357.62182617 14.50830078 C358.33672714 15.22305573 359.05162811 15.93781067 359.78819275 16.67422485 C362.12549942 19.01222209 364.45925317 21.35373121 366.79296875 23.6953125 C368.4284354 25.33264734 370.06412529 26.96975924 371.70002747 28.60665894 C375.98939294 32.89982604 380.2757482 37.19598621 384.5614624 41.49279785 C388.92132397 45.86289407 393.28401852 50.23016004 397.64648438 54.59765625 C404.68976951 61.64971314 411.73132266 68.70349382 418.77062988 75.75952148 C425.98137748 82.99158704 425.98137748 82.99158704 433.23950195 90.17602539 C437.65825028 94.52350224 442.06469488 98.88323296 446.46704102 103.24731445 C448.36835589 105.13063452 450.2745351 107.00883102 452.18481445 108.88305664 C454.9411952 111.59110892 457.6846223 114.31170812 460.42578125 117.03515625 C461.28504715 117.87377701 462.14431305 118.71239777 463.02961731 119.57643127 C463.81430893 120.36082077 464.59900055 121.14521027 465.4074707 121.95336914 C466.10298538 122.64000137 466.79850006 123.32663361 467.51509094 124.03407288 C469 126 469 126 469 130 C454.66562815 130.09359702 440.33130395 130.16378798 425.99668884 130.20724869 C419.34028054 130.22810935 412.68413236 130.25639972 406.02783203 130.30175781 C399.60227441 130.34526877 393.17691429 130.36914858 386.7512207 130.37950897 C384.30164481 130.38689081 381.85207954 130.4013058 379.40258789 130.42292023 C375.96737439 130.45202288 372.53297351 130.45595298 369.09765625 130.45410156 C368.08848648 130.46848267 367.07931671 130.48286377 366.03956604 130.49768066 C358.70447233 130.45499864 353.51294903 128.84766488 347.79296875 124.2109375 C347.26316406 123.60507812 346.73335937 122.99921875 346.1875 122.375 C345.64480469 121.78460938 345.10210938 121.19421875 344.54296875 120.5859375 C324.10312501 86.32979433 340 40.89073272 340 1 C227.8 1 115.6 1 0 1 C0 0.67 0 0.34 0 0 Z " fill="#EFF3F7" transform="translate(311,187)"/>
<path d="M0 0 C1.64480237 -0.00782324 1.64480237 -0.00782324 3.32283306 -0.01580453 C5.14468482 -0.00911236 5.14468482 -0.00911236 7.00334167 -0.002285 C8.28587483 -0.00540498 9.56840799 -0.00852497 10.88980579 -0.01173949 C14.46155528 -0.02012459 18.03319854 -0.01594549 21.60494852 -0.00976706 C25.45230248 -0.00525867 29.29963764 -0.01221827 33.14698792 -0.0177269 C40.68862112 -0.02663987 48.23021461 -0.02469044 55.77184939 -0.01890162 C61.89879098 -0.0143926 68.02572141 -0.01376892 74.15266418 -0.01594925 C75.02327919 -0.01625572 75.89389419 -0.01656218 76.79089147 -0.01687793 C78.55929494 -0.01751736 80.32769841 -0.01816578 82.09610188 -0.01882312 C98.69491777 -0.02453199 115.29371161 -0.0179598 131.89252388 -0.00722238 C146.14814282 0.00171363 160.40372919 0.00016175 174.65934753 -0.00905991 C191.1970546 -0.01975272 207.73474231 -0.02398261 224.27245235 -0.01783538 C226.03450457 -0.01719825 227.79655679 -0.01656951 229.55860901 -0.01594925 C230.85919785 -0.01548642 230.85919785 -0.01548642 232.1860612 -0.01501425 C238.30864126 -0.01328433 244.43120907 -0.01620877 250.55378723 -0.02090836 C258.01086537 -0.02650622 265.46790139 -0.02502389 272.92497468 -0.01434687 C276.73276098 -0.00907534 280.54047694 -0.00705844 284.34826279 -0.01364517 C288.46821414 -0.02066432 292.58798646 -0.01230747 296.70793152 -0.002285 C297.92249936 -0.00674645 299.1370672 -0.01120789 300.38844013 -0.01580453 C301.48497504 -0.01058903 302.58150995 -0.00537354 303.71127319 0 C304.66328708 0.0003247 305.61530096 0.00064941 306.59616375 0.00098395 C308.8556366 0.25168228 308.8556366 0.25168228 310.8556366 2.25168228 C311.09855652 4.3905983 311.09855652 4.3905983 311.08610535 7.00558853 C311.08417175 7.94209244 311.08223816 8.87859634 311.08024597 9.84347916 C311.06799988 10.82381119 311.05575378 11.80414322 311.0431366 12.81418228 C311.04249207 13.7983815 311.04184753 14.78258072 311.04118347 15.79660416 C310.99581192 23.11150696 310.99581192 23.11150696 309.8556366 24.25168228 C308.17285959 24.34982572 306.48592949 24.37723806 304.80029297 24.37752342 C303.14710194 24.38143504 303.14710194 24.38143504 301.46051311 24.38542569 C300.23456841 24.38319497 299.00862371 24.38096424 297.74552917 24.37866592 C296.45497777 24.38022591 295.16442636 24.38178591 293.83476734 24.38339317 C290.23605126 24.38759099 286.63736148 24.38549378 283.03864527 24.38240695 C279.1640317 24.3801549 275.28942283 24.38363149 271.41481018 24.38638687 C263.81790537 24.39084566 256.22101042 24.38986762 248.62410522 24.38697423 C242.45279722 24.38472062 236.281492 24.38440749 230.11018372 24.38549805 C229.23359378 24.38565128 228.35700384 24.38580451 227.45385057 24.38596239 C225.67336583 24.3862821 223.89288109 24.38660631 222.11239636 24.38693498 C205.39630594 24.38979009 188.680221 24.38650226 171.96413147 24.38113461 C157.60472158 24.37666655 143.24531978 24.37744247 128.88591003 24.38205338 C112.23176153 24.38739859 95.57761783 24.3895154 78.92346859 24.38644111 C77.14934222 24.38612254 75.37521585 24.38580817 73.60108948 24.38549805 C72.72806633 24.38534377 71.85504319 24.3851895 70.9555648 24.38503055 C64.78794637 24.38416523 58.62033097 24.38562857 52.45271301 24.3879776 C44.94179504 24.39077522 37.43088752 24.39003816 29.91997075 24.38469686 C26.08397931 24.38205932 22.24800534 24.38105566 18.41201401 24.38434601 C14.26324197 24.38785096 10.11451448 24.38368087 5.96574402 24.37866592 C4.12682697 24.38201201 4.12682697 24.38201201 2.25076008 24.38542569 C1.14863273 24.38281794 0.04650537 24.38021019 -1.08901978 24.37752342 C-2.52753658 24.37727989 -2.52753658 24.37727989 -3.99511433 24.37703145 C-6.1443634 24.25168228 -6.1443634 24.25168228 -7.1443634 23.25168228 C-7.39535264 19.77959421 -7.32958436 16.29427608 -7.3318634 12.81418228 C-7.3441095 11.83385025 -7.35635559 10.85351822 -7.36897278 9.84347916 C-7.37187317 8.4387233 -7.37187317 8.4387233 -7.37483215 7.00558853 C-7.37894104 6.14264175 -7.38304993 5.27969498 -7.38728333 4.3905983 C-6.86082866 -0.24484822 -3.92244435 0.00133783 0 0 Z " fill="#A5B3CC" transform="translate(262.1443634033203,554.7483177185059)"/>
<path d="M0 0 C0.33 0 0.66 0 1 0 C1.09305698 9.7191268 1.16394486 19.43809805 1.20724869 29.15757465 C1.22804203 33.67169854 1.25620695 38.18551556 1.30175781 42.69946289 C1.34551249 47.06317815 1.36919903 51.42659995 1.37950897 55.79051781 C1.38684759 57.44775188 1.40117696 59.10497156 1.42292023 60.76207924 C1.5943858 74.38297013 0.17390833 84.74540451 -9.62890625 94.90234375 C-12.8388321 97.74209693 -15.97966338 99.56916453 -20 101 C-20.85667267 101.3401413 -21.71334534 101.68028259 -22.59597778 102.0307312 C-26.61466348 103.17502064 -30.3457629 103.26553217 -34.48388672 103.22705078 C-35.31381638 103.22734283 -36.14374603 103.22763489 -36.99882507 103.22793579 C-39.72588776 103.22654902 -42.45267289 103.21101871 -45.1796875 103.1953125 C-47.07683157 103.19158005 -48.97397758 103.18873417 -50.87112427 103.18673706 C-55.85239022 103.17911891 -60.83353863 103.15948604 -65.8147583 103.1373291 C-70.90253103 103.11683148 -75.99032284 103.10772698 -81.078125 103.09765625 C-91.05213484 103.07623842 -101.02605762 103.04212445 -111 103 C-110.34 102.34 -109.68 101.68 -109 101 C-109.53367187 100.59910156 -110.06734375 100.19820312 -110.6171875 99.78515625 C-118.85983176 93.49621833 -126.60493292 86.89589738 -133.296875 78.953125 C-135.06795457 76.92207045 -136.93961054 75.06193232 -138.875 73.1875 C-142.89120537 69.24134472 -146.36693952 64.94921086 -149.87890625 60.5546875 C-151.68162768 58.38345395 -153.5160449 56.43570577 -155.5625 54.5 C-158 52 -158 52 -158 49 C-156.35 48.67 -154.7 48.34 -153 48 C-275.1 47.67 -397.2 47.34 -523 47 C-523 46.67 -523 46.34 -523 46 C-473.84380263 45.61061815 -424.68776151 45.31119955 -375.5303244 45.1318894 C-369.7226877 45.1106282 -363.91505404 45.08862464 -358.10742188 45.06616211 C-356.95126031 45.06170283 -355.79509875 45.05724355 -354.60390198 45.05264915 C-335.90011038 44.97874018 -317.19720993 44.84473938 -298.49394643 44.68840247 C-279.29275408 44.5292459 -260.0920274 44.43496329 -240.89020252 44.40049559 C-229.04758093 44.3772052 -217.20747825 44.30374188 -205.36563241 44.16542006 C-197.23752487 44.07533244 -189.1107132 44.04844716 -180.98214304 44.07047658 C-176.29601887 44.08133402 -171.61428405 44.06508932 -166.92894745 43.97350693 C-135.913987 43.39712493 -135.913987 43.39712493 -127.09476566 51.82598835 C-124.61766793 54.67246415 -122.47688702 57.60440731 -120.46103096 60.79183972 C-118.00519516 64.5035195 -115.0003363 67.72463982 -112 71 C-111.39982591 71.65934982 -110.79965181 72.31869965 -110.18129063 72.99802977 C-104.94706924 78.66287605 -98.77312793 82.41594815 -90.9921875 83.203125 C-81.42603412 83.41492175 -73.19893688 80.81303641 -66.10546875 74.24609375 C-62.15009588 70.38147513 -58.45386612 66.32225904 -54.84765625 62.1328125 C-52.7628345 59.72623179 -50.63478467 57.36235055 -48.5 55 C-45.81016569 52.01937279 -43.13689636 49.02754767 -40.5 46 C-35.69963822 40.49175077 -30.79393942 35.07745726 -25.8828125 29.66796875 C-20.20207984 23.39419257 -14.64670952 17.01676155 -9.11328125 10.61328125 C-8.6023291 10.02240723 -8.09137695 9.4315332 -7.56494141 8.82275391 C-6.47186473 7.54960095 -5.38616842 6.27009073 -4.30615234 4.98583984 C-3.76555176 4.34469238 -3.22495117 3.70354492 -2.66796875 3.04296875 C-2.17965576 2.45926514 -1.69134277 1.87556152 -1.18823242 1.27416992 C-0.79611572 0.85369385 -0.40399902 0.43321777 0 0 Z " fill="#8DA4CC" transform="translate(781,706)"/>
<path d="M0 0 C0.92663767 0.00446144 1.85327534 0.00892289 2.80799294 0.01351953 C3.78834322 0.01039954 4.7686935 0.00727956 5.77875137 0.00406504 C9.08461978 -0.00395272 12.39030655 0.00242336 15.69617653 0.00869775 C18.05772955 0.00598956 20.41928173 0.00242961 22.78083229 -0.00192237 C28.54177499 -0.01011794 34.30265935 -0.00888718 40.06360388 -0.00309709 C44.74413131 0.00141304 49.42464413 0.00203513 54.10517311 -0.00014472 C54.77041138 -0.00045119 55.43564965 -0.00075765 56.12104666 -0.00107341 C57.47231214 -0.00171283 58.82357761 -0.00236126 60.17484307 -0.00301859 C72.85646248 -0.00872663 85.538053 -0.00215657 98.21966767 0.00858214 C109.10963822 0.01751809 119.99956613 0.01596618 130.8895359 0.00674462 C143.52465391 -0.00394965 156.15974657 -0.00817726 168.79486847 -0.00203085 C170.14126396 -0.00139373 171.48765945 -0.00076499 172.83405495 -0.00014472 C173.49657001 0.00016383 174.15908508 0.00047238 174.84167635 0.00079028 C179.51854472 0.00251976 184.19539707 -0.0004033 188.87226295 -0.00510383 C195.16275151 -0.01086244 201.45315921 -0.00690771 207.74363899 0.00468469 C210.05843153 0.00733925 212.37323082 0.00655272 214.68802071 0.00215936 C217.83585211 -0.00326623 220.98342068 0.00350155 224.13123512 0.01351953 C225.52119163 0.00682736 225.52119163 0.00682736 226.93922806 0 C233.24131406 0.03918684 233.24131406 0.03918684 235.46961403 2.26748681 C235.72840309 4.29873681 235.72840309 4.29873681 235.73523903 6.76748681 C235.73781715 7.65436181 235.74039528 8.54123681 235.74305153 9.45498681 C235.73531715 10.38311181 235.72758278 11.31123681 235.71961403 12.26748681 C235.7273484 13.19561181 235.73508278 14.12373681 235.74305153 15.07998681 C235.7404734 15.96686181 235.73789528 16.85373681 235.73523903 17.76748681 C235.73298317 18.58217431 235.73072731 19.39686181 235.72840309 20.23623681 C235.46961403 22.26748681 235.46961403 22.26748681 233.46961403 24.26748681 C230.32790423 24.4657261 227.2741938 24.53658637 224.13123512 24.5214541 C223.15088484 24.52457408 222.17053455 24.52769406 221.16047668 24.53090858 C217.85460828 24.53892634 214.54892151 24.53255026 211.24305153 24.52627587 C208.88149851 24.52898406 206.51994633 24.53254401 204.15839577 24.53689599 C198.39745306 24.54509156 192.63656871 24.5438608 186.87562418 24.53807071 C182.19509675 24.53356058 177.51458393 24.53293849 172.83405495 24.53511834 C172.16881667 24.53542481 171.5035784 24.53573127 170.8181814 24.53604703 C169.46691592 24.53668645 168.11565045 24.53733488 166.76438498 24.53799221 C154.08276558 24.54370025 141.40117505 24.53713019 128.71956038 24.52639148 C117.82958984 24.51745553 106.93966193 24.51900744 96.04969215 24.528229 C83.41457415 24.53892327 70.77948148 24.54315089 58.14435959 24.53700447 C56.7979641 24.53636735 55.45156861 24.53573861 54.10517311 24.53511834 C53.44265805 24.53480979 52.78014298 24.53450124 52.0975517 24.53418334 C47.42068334 24.53245386 42.74383099 24.53537692 38.0669651 24.54007745 C31.77647655 24.54583606 25.48606885 24.54188133 19.19558907 24.53028893 C16.88079653 24.52763437 14.56599724 24.5284209 12.25120735 24.53281426 C9.10337594 24.53823985 5.95580737 24.53147207 2.80799294 24.5214541 C1.88135527 24.52591554 0.9547176 24.53037698 0 24.53497362 C-6.302086 24.49578678 -6.302086 24.49578678 -8.53038597 22.26748681 C-8.78917503 20.23623681 -8.78917503 20.23623681 -8.79601097 17.76748681 C-8.7985891 16.88061181 -8.80116722 15.99373681 -8.80382347 15.07998681 C-8.79222191 13.68779931 -8.79222191 13.68779931 -8.78038597 12.26748681 C-8.78812035 11.33936181 -8.79585472 10.41123681 -8.80382347 9.45498681 C-8.80124535 8.56811181 -8.79866722 7.68123681 -8.79601097 6.76748681 C-8.79375511 5.95279931 -8.79149925 5.13811181 -8.78917503 4.29873681 C-8.14144114 -0.78536318 -4.18660987 0.02603265 0 0 Z " fill="#A6B4CC" transform="translate(263.53038597106934,607.7325131893158)"/>
<path d="M0 0 C0.91885577 0.00446144 1.83771154 0.00892289 2.78441143 0.01351953 C3.75659461 0.01039954 4.72877779 0.00727956 5.73042107 0.00406504 C9.00865091 -0.00395252 12.28669758 0.00242328 15.56492901 0.00869775 C17.90677786 0.00598955 20.24862585 0.00242959 22.59047222 -0.00192237 C28.9663389 -0.01106905 35.34214113 -0.00749274 41.718009 -0.0011642 C47.7027357 0.00337296 53.68745639 -0.0000828 59.67218292 -0.00301859 C72.24793217 -0.0087266 84.8236523 -0.00215661 97.39939678 0.00858214 C108.19840388 0.01751809 118.99736799 0.01596618 129.79637432 0.00674462 C142.32601696 -0.0039497 154.85563405 -0.00817724 167.38528061 -0.00203085 C174.02186252 0.00113605 180.65842042 0.00148349 187.29500103 -0.00510383 C193.53296019 -0.0108625 199.7708378 -0.00690759 206.00878811 0.00468469 C208.30422995 0.00733921 210.59967859 0.00655278 212.89511776 0.00215936 C216.01667558 -0.00326637 219.13796837 0.00350171 222.25950909 0.01351953 C223.17836486 0.00905808 224.09722063 0.00459664 225.04392052 0 C231.29366028 0.03918683 231.29366028 0.03918683 233.52196026 2.26748681 C233.78074932 4.29873681 233.78074932 4.29873681 233.78758526 6.76748681 C233.79016338 7.65436181 233.79274151 8.54123681 233.79539776 9.45498681 C233.78766338 10.38311181 233.77992901 11.31123681 233.77196026 12.26748681 C233.77969463 13.19561181 233.78742901 14.12373681 233.79539776 15.07998681 C233.79281963 15.96686181 233.79024151 16.85373681 233.78758526 17.76748681 C233.7853294 18.58217431 233.78307354 19.39686181 233.78074932 20.23623681 C233.52196026 22.26748681 233.52196026 22.26748681 231.52196026 24.26748681 C228.40532231 24.46569624 225.37739555 24.53659279 222.25950909 24.5214541 C220.80123432 24.52613407 220.80123432 24.52613407 219.31349945 24.53090858 C216.03526961 24.53892615 212.75722294 24.53255034 209.47899151 24.52627587 C207.13714266 24.52898407 204.79529467 24.53254403 202.4534483 24.53689599 C196.07758161 24.54604268 189.70177939 24.54246636 183.32591152 24.53613782 C177.34118481 24.53160066 171.35646413 24.53505642 165.3717376 24.53799221 C152.79598835 24.54370022 140.22026822 24.53713024 127.64452374 24.52639148 C116.84551664 24.51745553 106.04655252 24.51900744 95.2475462 24.528229 C82.71790356 24.53892332 70.18828647 24.54315086 57.65863991 24.53700447 C51.022058 24.53383758 44.3855001 24.53349013 37.74891949 24.54007745 C31.51096033 24.54583612 25.27308271 24.54188121 19.03513241 24.53028893 C16.73969057 24.52763441 14.44424192 24.52842084 12.14880276 24.53281426 C9.02724493 24.53823999 5.90595214 24.53147191 2.78441143 24.5214541 C1.86555566 24.52591554 0.94669989 24.53037698 0 24.53497362 C-6.24973976 24.49578679 -6.24973976 24.49578679 -8.47803974 22.26748681 C-8.7368288 20.23623681 -8.7368288 20.23623681 -8.74366474 17.76748681 C-8.74624287 16.88061181 -8.74882099 15.99373681 -8.75147724 15.07998681 C-8.73987568 13.68779931 -8.73987568 13.68779931 -8.72803974 12.26748681 C-8.73577412 11.33936181 -8.74350849 10.41123681 -8.75147724 9.45498681 C-8.74889912 8.56811181 -8.74632099 7.68123681 -8.74366474 6.76748681 C-8.74140888 5.95279931 -8.73915302 5.13811181 -8.7368288 4.29873681 C-8.09158355 -0.76582974 -4.17583132 0.02618311 0 0 Z " fill="#A4B3CC" transform="translate(475.4780397415161,423.7325131893158)"/>
<path d="M0 0 C0.92565956 0.0015486 1.85131912 0.0030972 2.80502898 0.00469273 C3.78044128 0.00242718 4.75585359 0.00016162 5.76082385 -0.00217259 C9.05593056 -0.00854394 12.35099647 -0.00768123 15.64610869 -0.00685817 C17.99766156 -0.0098477 20.34921394 -0.01324975 22.70076567 -0.01703578 C29.10766383 -0.02590075 35.51454865 -0.02821493 41.92145234 -0.02885157 C46.58805009 -0.02942712 51.25464556 -0.03257541 55.92124223 -0.03568805 C68.46158221 -0.04399922 81.00191508 -0.04772953 93.54225772 -0.04701831 C94.61145936 -0.04695838 94.61145936 -0.04695838 95.70226103 -0.04689723 C96.41592784 -0.04685635 97.12959465 -0.04681547 97.86488772 -0.04677335 C109.43533609 -0.04636675 121.00575193 -0.05593859 132.57619088 -0.0700356 C144.44362475 -0.0843809 156.31104274 -0.0913068 168.17848551 -0.09044182 C174.84638665 -0.09010921 181.51425562 -0.09307692 188.18214804 -0.10361987 C194.45045579 -0.11325974 200.71869127 -0.11340847 206.98700148 -0.10610324 C209.29373281 -0.10505227 211.60046855 -0.10745037 213.90719229 -0.1134637 C217.04412291 -0.12111455 220.18079963 -0.11658502 223.31772429 -0.10883266 C224.24115313 -0.11397622 225.16458197 -0.11911978 226.1159935 -0.12441921 C232.3965973 -0.08986565 232.3965973 -0.08986565 234.62486845 2.1384055 C234.88365752 4.07785863 234.88365752 4.07785863 234.89049345 6.4196555 C234.89307158 7.26141331 234.8956497 8.10317113 234.89830595 8.97043675 C234.89057158 9.85086644 234.8828372 10.73129613 234.87486845 11.6384055 C234.88260283 12.51883519 234.8903372 13.39926488 234.89830595 14.30637425 C234.89572783 15.14813206 234.8931497 15.98988988 234.89049345 16.8571555 C234.88823759 17.62994847 234.88598173 18.40274144 234.88365752 19.19895238 C234.62486845 21.1384055 234.62486845 21.1384055 232.62486845 23.1384055 C229.50823051 23.33661493 226.48030374 23.40751148 223.36241728 23.39237279 C221.90414251 23.39705276 221.90414251 23.39705276 220.41640764 23.40182728 C217.1381778 23.40984484 213.86013113 23.40346903 210.5818997 23.39719456 C208.24005086 23.39990276 205.89820286 23.40346272 203.55635649 23.40781468 C197.18048981 23.41696137 190.80468758 23.41338505 184.42881972 23.40705651 C178.44409301 23.40251936 172.45937232 23.40597511 166.47464579 23.4089109 C153.89889654 23.41461891 141.32317641 23.40804893 128.74743193 23.39731017 C117.94842483 23.38837422 107.14946072 23.38992613 96.35045439 23.39914769 C83.82081175 23.40984202 71.29119466 23.41406955 58.7615481 23.40792316 C52.1249662 23.40475627 45.48840829 23.40440882 38.85182768 23.41099614 C32.61386853 23.41675481 26.37599091 23.4127999 20.1380406 23.40120763 C17.84259877 23.3985531 15.54715012 23.39933953 13.25171095 23.40373296 C10.13015313 23.40915868 7.00886034 23.4023906 3.88731962 23.39237279 C2.96846385 23.39683423 2.04960808 23.40129567 1.10290819 23.40589231 C-5.14683157 23.36670548 -5.14683157 23.36670548 -7.37513155 21.1384055 C-7.61805147 19.09128636 -7.61805147 19.09128636 -7.6056003 16.60324925 C-7.6036667 15.71186253 -7.60173311 14.82047581 -7.59974092 13.90207738 C-7.58749483 12.96944066 -7.57524873 12.03680394 -7.56263155 11.0759055 C-7.56198702 10.1394016 -7.56134248 9.20289769 -7.56067842 8.23801488 C-7.50718046 0.02904934 -7.50718046 0.02904934 0 0 Z " fill="#A7B4CD" transform="translate(474.375131547451,371.8615944981575)"/>
<path d="M0 0 C0.73957616 0.00223072 1.47915233 0.00446144 2.24113989 0.00675976 C3.41130093 0.00441978 3.41130093 0.00441978 4.60510159 0.00203252 C7.23921159 -0.00198059 9.87326473 0.00121335 12.50737524 0.00434887 C14.38765004 0.00299497 16.26792458 0.0012151 18.1481986 -0.00096118 C23.26995059 -0.00553682 28.39168253 -0.00374543 33.51343489 -0.0005821 C38.8608215 0.00194083 44.20820634 -0.00039585 49.55559301 -0.00196826 C58.53740769 -0.00379016 67.51921415 -0.00138314 76.50102758 0.00337231 C86.90122892 0.00881497 97.30141066 0.00705233 107.70161152 0.00154591 C116.61367715 -0.00298467 125.52573686 -0.00363605 134.43780327 -0.00101542 C139.76818205 0.00054766 145.09855161 0.00074027 150.42892981 -0.00255191 C155.43897121 -0.00542982 160.44898722 -0.00345642 165.45902586 0.00234234 C167.30337179 0.00367038 169.14771985 0.0032751 170.99206495 0.00107968 C173.49870327 -0.00163014 176.00525887 0.00174722 178.51189184 0.00675976 C179.62125609 0.00341368 179.62125609 0.00341368 180.75303173 0 C185.76236601 0.01959355 185.76236601 0.01959355 186.87651587 1.13374341 C187.12807856 4.77273516 187.06173812 8.42458013 187.06401587 12.07124341 C187.07626196 13.09927075 187.08850805 14.12729809 187.10112524 15.18647778 C187.10305883 16.16809887 187.10499243 17.14971997 187.10698462 18.16108716 C187.1110935 19.06592846 187.11520239 19.97076977 187.11943579 20.90303051 C186.87651587 23.13374341 186.87651587 23.13374341 184.87651587 25.13374341 C182.37265482 25.33115554 179.97931661 25.40305816 177.47429419 25.38771069 C176.31616051 25.39239066 176.31616051 25.39239066 175.1346302 25.39716518 C172.5335417 25.40517681 169.93268445 25.39880931 167.33159399 25.39253247 C165.47249734 25.39524093 163.61340176 25.39880104 161.75430822 25.40315259 C156.69450978 25.41229612 151.63479259 25.40872426 146.57499266 25.40239441 C141.28947108 25.39734456 136.00395665 25.40202303 130.71843481 25.40516675 C121.84093996 25.40880936 112.96347834 25.40399956 104.08598852 25.39448559 C93.81016597 25.38360048 83.53442277 25.38712585 73.25860214 25.3981384 C64.44925474 25.40720288 55.63993127 25.40850068 46.83058071 25.40326107 C41.56333219 25.40013673 36.29612102 25.39974468 31.02887487 25.40633404 C26.0778844 25.41209469 21.12699662 25.40813419 16.17601728 25.39654553 C14.35466765 25.39389206 12.53330944 25.39467566 10.71196318 25.39907086 C8.23410304 25.4045008 5.7565762 25.39772354 3.27873755 25.38771069 C2.18643859 25.39440286 2.18643859 25.39440286 1.07207298 25.40123022 C-3.89518397 25.36204357 -3.89518397 25.36204357 -6.12348413 23.13374341 C-6.36640406 20.90303051 -6.36640406 20.90303051 -6.35395288 18.16108716 C-6.35201929 17.17946606 -6.3500857 16.19784497 -6.34809351 15.18647778 C-6.33584742 14.15845044 -6.32360132 13.13042309 -6.31098413 12.07124341 C-6.3103396 11.03934887 -6.30969507 10.00745434 -6.30903101 8.94429028 C-6.25625101 0.02447075 -6.25625101 0.02447075 0 0 Z " fill="#A0AFCA" transform="translate(261.1234841346741,660.8662565946579)"/>
<path d="M0 0 C10.76595255 8.86431698 10.76595255 8.86431698 11.3125 13.8515625 C10.81380605 18.87590404 7.9635139 20.5668476 4.23828125 23.69140625 C-5.50878419 30.64015857 -16.45945775 35.01363161 -28 38 C-28.93150879 38.2626062 -28.93150879 38.2626062 -29.88183594 38.53051758 C-40.84826339 40.96118148 -54.54723922 39.76360337 -65 36 C-65.96679688 35.67128906 -66.93359375 35.34257812 -67.9296875 35.00390625 C-77.75013554 31.31804978 -88.30531181 25.18650637 -95 17 C-95.57467924 13.55634516 -95.45350008 11.80700481 -93.7421875 8.76171875 C-69.43006335 -18.24610117 -29.12251891 -20.6765269 0 0 Z " fill="#E4EBF5" transform="translate(391,461)"/>
<path d="M0 0 C6.90136304 4.99225818 11.32664098 12.1612887 12.75 20.59765625 C13.83540813 31.02775005 13.27333706 40.67508298 7.234375 49.61328125 C3.13253263 54.54679639 -0.98609316 57.78306082 -7 60 C-8.0725 60.4125 -9.145 60.825 -10.25 61.25 C-19.31370761 63.06274152 -26.96450751 62.71581026 -35 58 C-35.93972656 57.4740625 -35.93972656 57.4740625 -36.8984375 56.9375 C-44.57519519 52.11019385 -48.50642367 44.46588827 -50.53125 35.82421875 C-52.31436136 25.08097279 -50.67169244 14.97799571 -44.50390625 5.8828125 C-32.95167128 -8.57998556 -15.27179815 -9.92325483 0 0 Z " fill="#F0F4F9" transform="translate(367,377)"/>
<path d="M0 0 C1.2562992 0.00081715 1.2562992 0.00081715 2.53797817 0.00165081 C3.4984959 -0.00254368 4.45901363 -0.00673817 5.44863796 -0.01105976 C6.50586056 -0.00544025 7.56308315 0.00017925 8.6523428 0.00596905 C10.318232 0.00312153 10.318232 0.00312153 12.01777554 0.00021648 C15.70324582 -0.00350018 19.38852077 0.007225 23.07397366 0.01842022 C25.62462751 0.01961154 28.17528181 0.02006528 30.72593594 0.01980877 C36.07676038 0.02137514 41.42751652 0.02943541 46.77831936 0.04307842 C52.97223367 0.05881237 59.16608594 0.06407627 65.36001879 0.06334287 C71.31020963 0.06273338 77.26038253 0.06793879 83.21056843 0.07613468 C85.74683859 0.07932798 88.2831106 0.08129029 90.81938267 0.08202839 C94.3561828 0.08418449 97.89290336 0.09291259 101.42968655 0.1036253 C102.48893337 0.10317211 103.5481802 0.10271893 104.63952541 0.10225201 C105.59722332 0.10651699 106.55492123 0.11078197 107.54164028 0.1151762 C108.79737394 0.11768997 108.79737394 0.11768997 110.07847595 0.12025452 C111.97631741 0.24888897 111.97631741 0.24888897 112.97631741 1.24888897 C113.2278801 4.88788072 113.16153966 8.5397257 113.16381741 12.18638897 C113.1760635 13.21441631 113.18830959 14.24244366 113.20092678 15.30162334 C113.20286037 16.28324444 113.20479397 17.26486553 113.20678616 18.27623272 C113.21089504 19.18107403 113.21500393 20.08591534 113.21923733 21.01817608 C112.97631741 23.24888897 112.97631741 23.24888897 110.97631741 25.24888897 C108.97104549 25.50336456 108.97104549 25.50336456 106.45934963 25.50958538 C105.50869122 25.51667019 104.5580328 25.523755 103.57856655 25.5310545 C102.53226574 25.52857708 101.48596493 25.52609966 100.40795803 25.52354717 C98.75910862 25.53121357 98.75910862 25.53121357 97.07694912 25.53903484 C93.42876712 25.55298109 89.78077295 25.55197042 86.13256741 25.54967022 C83.60672847 25.55355409 81.08089018 25.55788811 78.55505276 25.56265545 C73.25550864 25.5701283 67.95603404 25.56995597 62.65649319 25.5645628 C56.52500791 25.55851909 50.39375189 25.57084214 44.26230574 25.59213287 C38.36977891 25.6118439 32.47732343 25.61492618 26.58476162 25.61139774 C24.07443103 25.61191284 21.56409691 25.61718554 19.05378628 25.62720966 C15.5505676 25.63948189 12.04788621 25.63283794 8.54467678 25.62120342 C7.49837597 25.62884716 6.45207516 25.6364909 5.37406826 25.64436626 C4.42340984 25.63735195 3.47275143 25.63033764 2.49328518 25.62311077 C1.24999573 25.62336238 1.24999573 25.62336238 -0.01841068 25.62361908 C-1.01102028 25.43812768 -1.01102028 25.43812768 -2.02368259 25.24888897 C-4.1334502 22.08423757 -4.27920865 21.27495124 -4.28930759 17.65123272 C-4.29188572 16.76758038 -4.29446384 15.88392803 -4.29712009 14.97349834 C-4.28938572 14.05375225 -4.28165134 13.13400616 -4.27368259 12.18638897 C-4.28141697 11.26277569 -4.28915134 10.33916241 -4.29712009 9.38756084 C-4.29454197 8.50519756 -4.29196384 7.62283428 -4.28930759 6.71373272 C-4.28705173 5.90540997 -4.28479588 5.09708721 -4.28247166 4.26426983 C-3.91084829 1.37016523 -2.8961968 0.35619787 0 0 Z " fill="#A5B3CC" transform="translate(471.0236825942993,472.7511110305786)"/>
<path d="M0 0 C0.33 0 0.66 0 1 0 C1.00364563 1.2136322 1.00729126 2.4272644 1.01104736 3.67767334 C1.04809667 15.15268687 1.10597769 26.62743451 1.18390274 38.10224533 C1.22329848 44.00062878 1.25552576 49.8988647 1.27099609 55.79736328 C1.28621464 61.49692271 1.32075252 67.19607632 1.36830902 72.89545441 C1.38306928 75.0625479 1.39103792 77.22969936 1.39188385 79.39684296 C0.73555694 97.41824867 0.73555694 97.41824867 7.98394775 113.26629639 C14.72629278 119.68128789 20.76713343 120.29980765 29.75708008 120.31884766 C30.84045654 120.32889328 31.92383301 120.3389389 33.04003906 120.34928894 C36.61653113 120.38014899 40.19294823 120.39716418 43.76953125 120.4140625 C46.25103908 120.43277185 48.73254054 120.45234508 51.21403503 120.4727478 C57.74222049 120.52409949 64.27042657 120.56370913 70.79870605 120.60089111 C77.46156412 120.63985445 84.12432808 120.69201291 90.78710938 120.7421875 C103.85801141 120.83898283 116.92896278 120.92375251 130 121 C130.33 120.34 130.66 119.68 131 119 C131 124.61 131 130.22 131 136 C117.20440158 136.06959689 103.40884514 136.12286063 89.61310673 136.15543652 C83.20677031 136.17107351 76.80055426 136.19227618 70.39428711 136.22631836 C64.20863605 136.25898145 58.02310058 136.2768678 51.83736992 136.28463173 C49.48073953 136.29016272 47.12411527 136.30096337 44.76753426 136.31719017 C41.45954989 136.33905639 38.15203948 136.34196303 34.84399414 136.34057617 C33.8758226 136.351362 32.90765106 136.36214783 31.91014099 136.3732605 C21.63092609 136.32681365 12.73543038 133.24382206 5.0859375 126.25 C-4.01408741 116.64656946 -4.57777768 106.21507327 -4.42578125 93.5390625 C-4.42084093 91.94217338 -4.41755278 90.34527839 -4.41581726 88.74838257 C-4.40820861 85.40807411 -4.38776683 82.06819888 -4.35668945 78.72802734 C-4.31743461 74.50787965 -4.29921274 70.28801164 -4.28923893 66.06770325 C-4.22105492 37.899833 -4.22105492 37.899833 -3.578125 24.2265625 C-3.54483597 23.49434479 -3.51154694 22.76212708 -3.47724915 22.00772095 C-3.05245909 14.55046802 -1.61592597 7.2767484 0 0 Z " fill="#C0C9DB" transform="translate(650,196)"/>
<path d="M0 0 C0.33 0 0.66 0 1 0 C1.10209629 6.91922282 1.17175562 13.83824869 1.21972656 20.75805664 C1.23974175 23.10806538 1.26696244 25.45802496 1.30175781 27.80786133 C1.35072124 31.20145867 1.37307059 34.59439296 1.390625 37.98828125 C1.41127014 39.02519608 1.43191528 40.0621109 1.45318604 41.13044739 C1.45658488 52.38260745 -1.81879582 60.81009468 -9.62890625 68.90234375 C-12.8388321 71.74209693 -15.97966338 73.56916453 -20 75 C-20.85263428 75.3407959 -21.70526855 75.6815918 -22.58374023 76.03271484 C-26.73279407 77.20748446 -30.39553585 77.25212855 -34.6796875 77.1953125 C-35.49245148 77.1924826 -36.30521545 77.18965271 -37.14260864 77.18673706 C-39.72022675 77.17560619 -42.29748819 77.15051515 -44.875 77.125 C-46.63020329 77.11496101 -48.38541206 77.10583677 -50.140625 77.09765625 C-54.42721926 77.07569015 -58.7135493 77.04120978 -63 77 C-60.88882482 73.83323724 -59.11697979 72.91085116 -55.85449219 71.12939453 C-52.88425382 69.32050529 -50.52271377 66.92313666 -48.125 64.4375 C-47.34757446 63.64533081 -47.34757446 63.64533081 -46.55444336 62.8371582 C-42.59180699 58.74363679 -38.95617153 54.44033914 -35.41015625 49.98046875 C-32.52368029 46.4109693 -29.52003237 42.95648583 -26.5 39.5 C-13.58995906 24.7635047 -13.58995906 24.7635047 -2 9 C-1.34 9 -0.68 9 0 9 C0 6.03 0 3.06 0 0 Z " fill="#ADC1DE" transform="translate(781,732)"/>
<path d="M0 0 C0.33 0 0.66 0 1 0 C0.96519531 0.75023437 0.93039062 1.50046875 0.89453125 2.2734375 C0.50875472 16.85946421 4.84320875 24.05789566 14.52246094 34.44335938 C17.04034414 37.09604003 19.60729921 39.68990677 22.23046875 42.23828125 C23.95168007 43.9518934 25.54245989 45.72078459 27.125 47.5625 C31.19458217 52.29784331 35.4801897 56.8269344 39.76220703 61.36938477 C42.72873848 64.52637771 45.64337164 67.71364004 48.484375 70.984375 C51.97555665 75.00098533 55.59444782 78.88319973 59.25 82.75 C63.89708033 87.68817261 68.53667857 92.63210999 73.125 97.625 C73.95257812 98.52476562 74.78015625 99.42453125 75.6328125 100.3515625 C83 108.59405941 83 108.59405941 83 110 C61.1545037 112.20980454 61.1545037 112.20980454 54.71972656 108.78710938 C51.05756251 105.69150021 48.52178339 101.87109269 46.08056641 97.77734375 C44.61923136 95.37370182 42.87061306 93.27558662 41.0625 91.125 C40.13050781 89.94550781 40.13050781 89.94550781 39.1796875 88.7421875 C36.93209332 85.91456901 34.65468662 83.11319894 32.37133789 80.31445312 C-2.17997738 37.95314793 -2.17997738 37.95314793 -2.3125 15.1875 C-2.31805908 14.37482666 -2.32361816 13.56215332 -2.3293457 12.72485352 C-2.27363471 8.10369793 -1.75633711 4.34535995 0 0 Z " fill="#A6B8D6" transform="translate(534,612)"/>
<path d="M0 0 C0.680625 0.70125 1.36125 1.4025 2.0625 2.125 C4.156218 4.20685558 6.29495506 6.22370725 8.5 8.1875 C9.0465625 8.67605469 9.593125 9.16460937 10.15625 9.66796875 C15.55920592 13.57137547 20.97712525 13.3047489 27.38989258 13.31884766 C28.43425476 13.32889328 29.47861694 13.3389389 30.55462646 13.34928894 C34.00125588 13.38014134 37.44780753 13.39716203 40.89453125 13.4140625 C43.28635834 13.43277246 45.67817881 13.45234575 48.06999207 13.4727478 C54.36144108 13.52409297 60.65291149 13.56370609 66.94445801 13.60089111 C73.36602077 13.64091569 79.7874943 13.69201512 86.20898438 13.7421875 C98.8059258 13.8389751 111.4029184 13.92374707 124 14 C124 16.64 124 19.28 124 22 C110.31754052 22.09275887 96.63515609 22.16379524 82.95244598 22.20724869 C76.59871804 22.22810619 70.24520553 22.25639098 63.89160156 22.30175781 C57.75781644 22.34528003 51.62423831 22.36915093 45.49031067 22.37950897 C43.15237674 22.38688881 40.81445389 22.4012999 38.47660828 22.42292023 C35.19704883 22.45203804 31.91834019 22.45595237 28.63867188 22.45410156 C27.6762558 22.46848267 26.71383972 22.48286377 25.72225952 22.49768066 C17.45717986 22.44734623 10.98368982 19.81747622 5 14 C1.68148223 9.51551653 0.45080728 5.52238915 0 0 Z " fill="#A3AFCB" transform="translate(652,303)"/>
<path d="M0 0 C1.58838052 2.81701921 2.24963648 4.8314602 2.24609566 8.06018925 C2.25007775 8.86400093 2.25405985 9.66781262 2.25816262 10.49598223 C2.25233693 11.37331166 2.24651125 12.2506411 2.24050903 13.15455627 C2.24221788 14.09099077 2.24392673 15.02742526 2.24568737 15.99223655 C2.24898783 19.13756114 2.2379692 22.28267351 2.22705078 25.42797852 C2.22648678 27.67982986 2.22680302 29.93168158 2.22793579 32.18353271 C2.22851082 38.30523494 2.21673124 44.42685916 2.20278788 50.54854321 C2.19030125 56.94665969 2.1891115 63.34477788 2.18673706 69.74290466 C2.18122199 80.48739225 2.16872092 91.2318457 2.15087891 101.97631836 C2.13253334 113.03556169 2.11836918 124.09479726 2.10986328 135.15405273 C2.10933783 135.83532762 2.10881239 136.5166025 2.10827102 137.21852208 C2.10566066 140.63671843 2.10313317 144.05491483 2.10064721 147.47311127 C2.08135891 173.86134477 2.05025355 200.24955262 2.00932419 226.63776118 C2.00151886 231.70803535 2.004475 236.77748338 2.03515625 241.84765625 C2.04448291 244.25260335 2.05358807 246.65755132 2.0625 249.0625 C2.07087891 250.25294922 2.07925781 251.44339844 2.08789062 252.66992188 C2.10674461 259.52900061 1.81836445 266.188888 1 273 C5.95 273 10.9 273 16 273 C16 273.33 16 273.66 16 274 C6.76 274 -2.48 274 -12 274 C-12 241 -12 208 -12 174 C-11.34 174.33 -10.68 174.66 -10 175 C-8.60211957 179.19364129 -8.61981666 183.25411801 -8.4375 187.65234375 C-8.3950415 188.6572435 -8.35258301 189.66214325 -8.30883789 190.69749451 C-7.774541 204.97952177 -7.93034526 219.27344544 -8 233.5625 C-8.02380125 238.52128085 -8.04401792 243.48003144 -8.05593872 248.43885612 C-8.06234532 250.3941971 -8.07491963 252.34951478 -8.08764648 254.30482483 C-8.09094971 255.49144211 -8.09425293 256.67805939 -8.09765625 257.90063477 C-8.10289307 258.93712662 -8.10812988 259.97361847 -8.11352539 261.04151917 C-7.97089422 265.58451147 -7.97089422 265.58451147 -7 270 C-4.00326476 271.69616255 -4.00326476 271.69616255 -1 273 C-1.00037972 272.42483597 -1.00075944 271.84967195 -1.00115067 271.25707871 C-1.02350582 237.2038831 -1.04067495 203.15068915 -1.05106533 169.09748781 C-1.05231611 165.01298991 -1.05361042 160.92849202 -1.05493164 156.84399414 C-1.05519395 156.03080923 -1.05545626 155.21762433 -1.05572652 154.37979745 C-1.06008343 141.19522327 -1.0679711 128.01065342 -1.0771528 114.82608182 C-1.08648875 101.30773892 -1.09205549 87.7893983 -1.09408849 74.2710523 C-1.09546384 65.92268171 -1.09981508 57.57432337 -1.10791647 49.22595655 C-1.11318321 43.50907571 -1.11480446 37.79220126 -1.11350138 32.07531817 C-1.11285788 28.77197497 -1.11441521 25.46865796 -1.11920547 22.16531754 C-1.12413533 18.59233628 -1.12300092 15.01940873 -1.12025452 11.44642639 C-1.12316736 10.3910013 -1.1260802 9.3355762 -1.12908131 8.24816853 C-1.12709026 7.29869388 -1.12509921 6.34921924 -1.12304783 5.37097263 C-1.12342755 4.54508092 -1.12380727 3.7191892 -1.1241985 2.86827046 C-1 1 -1 1 0 0 Z " fill="#0D43AE" transform="translate(782,320)"/>
<path d="M0 0 C0.33 0 0.66 0 1 0 C1.48828125 5.76171875 1.48828125 5.76171875 1 8 C-1.15234375 10.375 -1.15234375 10.375 -4 13 C-4.96554875 14.00760833 -5.92103268 15.02494013 -6.8671875 16.05078125 C-7.35662842 16.58018311 -7.84606934 17.10958496 -8.3503418 17.6550293 C-9.10504761 18.47547729 -9.10504761 18.47547729 -9.875 19.3125 C-10.40456299 19.88718018 -10.93412598 20.46186035 -11.47973633 21.05395508 C-14.80435991 24.67179305 -18.07785517 28.32720488 -21.29296875 32.04296875 C-23.33633431 34.3855915 -25.41680859 36.69273422 -27.5 39 C-30.18983431 41.98062721 -32.86310364 44.97245233 -35.5 48 C-38.89615864 51.89929326 -42.35901843 55.736291 -45.82421875 59.57421875 C-47.67443563 61.63702788 -49.49944809 63.7171237 -51.3125 65.8125 C-52.53906872 67.21061679 -53.76866407 68.60607991 -55 70 C-55.44778809 70.51030762 -55.89557617 71.02061523 -56.35693359 71.54638672 C-57.89442576 73.29028057 -59.44595488 75.0208512 -61 76.75 C-61.48637939 77.30534424 -61.97275879 77.86068848 -62.47387695 78.43286133 C-68.62394128 85.21485887 -75.73183164 88.34977507 -84.82421875 89.29296875 C-95.12886751 89.78115313 -101.53849286 86.35586519 -109.1875 79.6875 C-112.72315735 76.35497824 -115.96193905 72.88028815 -119.0859375 69.1640625 C-121.45709094 66.48320738 -124.00432146 63.99957144 -126.5625 61.5 C-130.84311307 57.27245238 -134.62096423 52.97587968 -138 48 C-135.9296875 47.5625 -135.9296875 47.5625 -133 48 C-130.40605629 50.05504444 -128.2992092 52.51452017 -126.125 55 C-125.19192017 56.03350586 -125.19192017 56.03350586 -124.23999023 57.08789062 C-122.47824894 59.04584317 -120.73530529 61.0186162 -119 63 C-118.26652344 63.8353125 -117.53304687 64.670625 -116.77734375 65.53125 C-115.68439629 66.78602339 -114.5919 68.04119 -113.5 69.296875 C-107.20169654 76.44807372 -100.86760142 82.20405589 -90.9921875 83.203125 C-81.42603412 83.41492175 -73.19893688 80.81303641 -66.10546875 74.24609375 C-62.15009588 70.38147513 -58.45386612 66.32225904 -54.84765625 62.1328125 C-52.7628345 59.72623179 -50.63478467 57.36235055 -48.5 55 C-45.81016569 52.01937279 -43.13689636 49.02754767 -40.5 46 C-35.69963822 40.49175077 -30.79393942 35.07745726 -25.8828125 29.66796875 C-20.20207984 23.39419257 -14.64670952 17.01676155 -9.11328125 10.61328125 C-8.6023291 10.02240723 -8.09137695 9.4315332 -7.56494141 8.82275391 C-6.47186473 7.54960095 -5.38616842 6.27009073 -4.30615234 4.98583984 C-3.76555176 4.34469238 -3.22495117 3.70354492 -2.66796875 3.04296875 C-1.93549927 2.16741333 -1.93549927 2.16741333 -1.18823242 1.27416992 C-0.79611572 0.85369385 -0.40399902 0.43321777 0 0 Z " fill="#5772A9" transform="translate(781,706)"/>
<path d="M0 0 C3.88789563 1.58395748 6.40520105 3.70390403 9 7 C10.26071695 10.14578895 10.62272112 12.65638027 10 16 C2.87905893 27.5851396 -14.57612251 34.93750929 -27.25 38.25 C-49.48900739 42.42483171 -69.22640052 37.91241899 -88.41015625 26.26171875 C-89.19712891 25.63716797 -89.19712891 25.63716797 -90 25 C-90 24.34 -90 23.68 -90 23 C-85.93698167 23.6079699 -82.86682525 24.95176752 -79.25 26.875 C-62.77739571 35.31366829 -43.39440762 36.91334232 -25.62890625 31.39453125 C-14.29275139 27.03822631 -3.67091329 21.67091329 5 13 C5.69011284 8.76073544 4.9277759 6.51563319 2.5 3.125 C1.68006717 2.07275286 0.85100278 1.02728193 0 0 Z " fill="#0A46B4" transform="translate(396,465)"/>
<path d="M0 0 C0.33 0 0.66 0 1 0 C2.2332252 8.5521487 2.74200318 15.50572864 -2 23 C-4.34269264 25.87588612 -6.80498802 28.55976951 -9.375 31.234375 C-11.80473161 33.7942708 -14.00030023 36.4203609 -16.1875 39.1875 C-21.84662365 46.20360712 -28.10760116 52.65132531 -34.29931641 59.19482422 C-44.53065827 70.05479288 -54.34912935 81.40298796 -63.4765625 93.20703125 C-65 95 -65 95 -67 96 C-67.35914929 90.70254799 -66.89565809 88.1484648 -63.578125 83.89453125 C-60.98177169 81.06164123 -58.26555167 78.34634897 -55.55712891 75.62109375 C-53.2758659 73.24611941 -51.23628549 70.70102044 -49.1875 68.125 C-46.19246827 64.39605059 -43.09348603 60.97618237 -39.66015625 57.65234375 C-37.33317944 55.33631742 -35.22449076 52.85302088 -33.08203125 50.3671875 C-30.43953963 47.36277864 -27.72170776 44.43255313 -25 41.5 C-21.11056367 37.30408688 -17.24578252 33.09666624 -13.51953125 28.75390625 C-12.49807219 27.57489567 -11.4530315 26.41594889 -10.38671875 25.27734375 C-3.57709813 17.85941956 -1.39587279 9.82620976 0 0 Z " fill="#0E3E9D" transform="translate(850,616)"/>
<path d="M0 0 C3.15293082 3.15293082 2.96631623 6.74322004 3.08229065 11.07035828 C3.06230515 12.16822159 3.04231964 13.2660849 3.02172852 14.3972168 C3.00163223 15.66797058 2.98153595 16.93872437 2.96083069 18.24798584 C2.94753283 18.92828606 2.93423496 19.60858627 2.92053413 20.30950165 C2.8776302 22.51480903 2.84167692 24.72014125 2.80735779 26.92559814 C2.75666459 30.14997683 2.70344246 33.37429847 2.64819336 36.59860229 C2.49952703 45.34152768 2.37166096 54.08473203 2.25390625 62.828125 C2.24150532 63.74728636 2.22910439 64.66644772 2.21632767 65.61346245 C2.0170477 80.79986885 1.95510563 95.98424422 1.96484375 111.171875 C1.96546877 112.21036402 1.96609379 113.24885303 1.96673775 114.31881142 C1.97455982 124.55401968 1.99505754 134.78916048 2.02833652 145.02431679 C2.03997462 148.8356826 2.04800006 152.64705148 2.05549812 156.45842743 C2.06231367 159.08065382 2.0748972 161.70280961 2.0877533 164.32501221 C2.09134779 165.91320737 2.09466514 167.50140319 2.09765625 169.08959961 C2.10282037 169.79297801 2.10798449 170.49635641 2.11330509 171.22104931 C2.11378491 175.5930739 1.7066485 179.69970071 1 184 C0.67 184 0.34 184 0 184 C0 123.28 0 62.56 0 0 Z " fill="#0145BA" transform="translate(783,320)"/>
<path d="M0 0 C0.99 0.495 0.99 0.495 2 1 C3.39788043 5.19364129 3.38018334 9.25411801 3.5625 13.65234375 C3.6049585 14.6572435 3.64741699 15.66214325 3.69116211 16.69749451 C4.225459 30.97952177 4.06965474 45.27344544 4 59.5625 C3.97619875 64.52128085 3.95598208 69.48003144 3.94406128 74.43885612 C3.93765468 76.3941971 3.92508037 78.34951478 3.91235352 80.30482483 C3.90905029 81.49144211 3.90574707 82.67805939 3.90234375 83.90063477 C3.89710693 84.93712662 3.89187012 85.97361847 3.88647461 87.04151917 C4.00573557 90.14946934 4.24337449 92.97927645 5 96 C7.95071844 97.93469849 7.95071844 97.93469849 11 99 C11 99.33 11 99.66 11 100 C7.37 100 3.74 100 0 100 C0 67 0 34 0 0 Z " fill="#6D86B9" transform="translate(770,494)"/>
<path d="M0 0 C6.82977044 5.71470588 12.97540994 11.7548977 18.78515625 18.5 C22.35954077 22.53457865 26.06484471 26.44713192 29.76196289 30.36914062 C32.7285869 33.52620531 35.64329589 36.71355283 38.484375 39.984375 C41.97555665 44.00098533 45.59444782 47.88319973 49.25 51.75 C53.89708033 56.68817261 58.53667857 61.63210999 63.125 66.625 C63.95257812 67.52476562 64.78015625 68.42453125 65.6328125 69.3515625 C68.16154009 72.18073297 70.58706017 75.0718417 73 78 C71.68 78.33 70.36 78.66 69 79 C60.80119794 70.23116288 52.62291141 61.44449565 44.48974609 52.61474609 C42.93978891 50.93473678 41.38631745 49.2580358 39.83203125 47.58203125 C31.12756452 38.18937938 31.12756452 38.18937938 27.625 34.125 C23.59835021 29.46360739 19.35155509 25.00663995 15.13793945 20.51513672 C11.45522393 16.58208181 7.8308285 12.61447982 4.33203125 8.515625 C3.01003496 6.94264024 3.01003496 6.94264024 1.32421875 5.546875 C0 4 0 4 0 0 Z " fill="#6D85B7" transform="translate(544,643)"/>
<path d="M0 0 C4.05984983 6.08977474 3.63056685 11.8028404 3 19 C0.61117491 28.69455922 -3.84642966 37.03927838 -12.5 42.375 C-21.35315452 46.48539317 -32.51625304 48.21812396 -41.96875 44.984375 C-45.65595797 42.99711356 -47.6508588 41.5237118 -50 38 C-47.31936571 38.47305311 -44.95985635 39.01664493 -42.4375 40.0625 C-33.02305125 42.63007693 -23.72618656 41.17821644 -15 37 C-6.60934877 31.5844653 -3.36221121 24.4390023 -1 15 C-0.72433032 12.36033278 -0.51572333 9.71278937 -0.375 7.0625 C-0.33632813 6.37865234 -0.29765625 5.69480469 -0.2578125 4.99023438 C-0.16477588 3.32720487 -0.08136213 1.66364153 0 0 Z " fill="#2E66D2" transform="translate(380,397)"/>
<path d="M0 0 C0.33 0 0.66 0 1 0 C1 30.36 1 60.72 1 92 C0.01 91.67 -0.98 91.34 -2 91 C-1.99476318 90.20416504 -1.98952637 89.40833008 -1.98413086 88.58837891 C-1.96316487 84.93392751 -1.95027793 81.27948884 -1.9375 77.625 C-1.92912109 76.37332031 -1.92074219 75.12164063 -1.91210938 73.83203125 C-1.89569429 67.56146892 -2.08682317 61.46527774 -2.81079102 55.23876953 C-3.11263319 51.66729499 -2.82624124 48.18588843 -2.5 44.625 C-2.13644838 40.51764016 -1.98395699 37.01384469 -3 33 C-3.821559 21.82679759 -3.70590164 10.65446722 0 0 Z " fill="#BBC7DC" transform="translate(611,502)"/>
<path d="M0 0 C0.99 0.495 0.99 0.495 2 1 C2.9662444 3.89873319 3.1235395 5.71427593 3.12025452 8.72660828 C3.12162918 9.69835999 3.12300385 10.67011169 3.12442017 11.67131042 C3.12082489 12.73585953 3.11722961 13.80040863 3.11352539 14.8972168 C3.11367142 16.01931549 3.11381744 17.14141418 3.1139679 18.29751587 C3.11326998 22.01476968 3.10548317 25.73197367 3.09765625 29.44921875 C3.09579164 32.0232592 3.09436794 34.59730001 3.09336853 37.17134094 C3.08993757 43.25925528 3.08205218 49.34714899 3.07201904 55.43505555 C3.06084421 62.36606694 3.055344 69.29707917 3.05032361 76.22809732 C3.03986921 90.48540785 3.0222783 104.74270329 3 119 C2.34 118.67 1.68 118.34 1 118 C0.30605976 88.20486362 -0.09823432 58.42742018 -0.0625 28.625 C-0.06164398 27.90592468 -0.06078796 27.18684937 -0.05990601 26.44598389 C-0.0486224 17.63063195 -0.0287078 8.81531348 0 0 Z " fill="#3CCB33" transform="translate(752,490)"/>
<path d="M0 0 C0.33 0 0.66 0 1 0 C2.2332252 8.5521487 2.74200318 15.50572864 -2 23 C-4.33124002 25.86182691 -6.77935551 28.53287281 -9.33984375 31.19140625 C-11.97919371 33.97803271 -14.36550174 36.86916041 -16.75 39.875 C-19.89862435 43.78421567 -22.97657101 47.00821947 -27 50 C-28 47 -28 47 -27.22265625 45.0078125 C-26.07295728 43.11980844 -24.89746363 41.53045733 -23.4375 39.875 C-22.91027344 39.27300781 -22.38304687 38.67101562 -21.83984375 38.05078125 C-20.50521503 36.56313777 -19.16307245 35.08222435 -17.81640625 33.60546875 C-8.47454528 23.34990131 -1.27244167 14.31496873 0 0 Z " fill="#093EA2" transform="translate(850,616)"/>
<path d="M0 0 C6.81858823 5.70534933 12.95827696 11.7338055 18.7578125 18.46875 C24.03950593 24.43135862 29.54698598 30.19433732 35 36 C34.34 37.32 33.68 38.64 33 40 C32.00033203 38.90945313 32.00033203 38.90945313 30.98046875 37.796875 C30.54065674 37.31710205 30.10084473 36.8373291 29.64770508 36.34301758 C28.66177707 35.26741479 27.67593942 34.19172918 26.69018555 33.1159668 C24.16271036 30.35795706 21.63400688 27.6011045 19.1015625 24.84765625 C14.23664599 19.55499903 9.40252023 14.2397317 4.65625 8.83984375 C3.05710993 6.98862905 3.05710993 6.98862905 1.28125 5.50390625 C0 4 0 4 0 0 Z " fill="#7288B7" transform="translate(544,643)"/>
<path d="M0 0 C2.0703125 -0.4375 2.0703125 -0.4375 5 0 C7.59392451 2.05502923 9.70098814 4.51436904 11.875 7 C12.80590454 8.03241821 12.80590454 8.03241821 13.75561523 9.08569336 C15.51730559 11.04557098 17.26074183 13.02022304 19 15 C19.75667969 15.84691406 20.51335938 16.69382812 21.29296875 17.56640625 C24.61063781 21.30885413 27.81745874 25.14237423 31 29 C30.01 29.66 29.02 30.32 28 31 C27.61779297 30.5875 27.23558594 30.175 26.84179688 29.75 C25.06279354 27.83184478 23.28177116 25.91558453 21.5 24 C20.53803711 22.96540649 20.53803711 22.96540649 19.55664062 21.90991211 C16.26993688 18.38767234 12.95761083 14.91881363 9.5 11.5625 C5.88820947 8.02076575 2.90284681 4.13435758 0 0 Z " fill="#637DB2" transform="translate(643,754)"/>
<path d="M0 0 C0.33 0 0.66 0 1 0 C1.72838444 12.94101775 2.0915903 25.85516175 2.0625 38.81640625 C2.06105988 39.49660198 2.05961975 40.17679771 2.05813599 40.87760544 C2.04594854 45.77260629 2.0238614 50.66754426 2 55.5625 C1.97619875 60.52128085 1.95598208 65.48003144 1.94406128 70.43885612 C1.93765468 72.3941971 1.92508037 74.34951478 1.91235352 76.30482483 C1.90905029 77.49144211 1.90574707 78.67805939 1.90234375 79.90063477 C1.89710693 80.93712662 1.89187012 81.97361847 1.88647461 83.04151917 C2.00573557 86.14946934 2.24337449 88.97927645 3 92 C5.95071844 93.93469849 5.95071844 93.93469849 9 95 C9 95.33 9 95.66 9 96 C6.03 96 3.06 96 0 96 C0 64.32 0 32.64 0 0 Z " fill="#92A6D1" transform="translate(772,498)"/>
<path d="M0 0 C5.95918367 5.95918367 5.95918367 5.95918367 6.125 10.1875 C6.08375 11.115625 6.0425 12.04375 6 13 C4 11 4 11 3 8 C2.67 40.67 2.34 73.34 2 107 C1.67 107 1.34 107 1 107 C0.505 54.035 0.505 54.035 0 0 Z " fill="#CFDAE7" transform="translate(768,487)"/>
<path d="M0 0 C13.58152174 11.36413043 13.58152174 11.36413043 17 18 C16.34 18.66 15.68 19.32 15 20 C14.16855469 19.09636719 13.33710937 18.19273437 12.48046875 17.26171875 C11.38284577 16.07028184 10.28518768 14.87887729 9.1875 13.6875 C8.64029297 13.09259766 8.09308594 12.49769531 7.52929688 11.88476562 C6.99755859 11.30791016 6.46582031 10.73105469 5.91796875 10.13671875 C5.43094482 9.60780029 4.9439209 9.07888184 4.44213867 8.53393555 C3.01285018 6.95934811 3.01285018 6.95934811 1.31762695 5.55395508 C0 4 0 4 0 0 Z " fill="#7C90BC" transform="translate(544,643)"/>
<path d="M0 0 C4.11956507 0.61226563 7.26279913 2.003198 10.9375 3.9375 C14.89748205 6.01712928 18.72270706 7.68047744 23 9 C23 10.32 23 11.64 23 13 C14.52556968 10.66222612 7.4852274 6.4826184 0 2 C0 1.34 0 0.68 0 0 Z " fill="#1150C1" transform="translate(306,488)"/>
<path d="M0 0 C0 7.07434098 -6.2652664 13.21555791 -11 18 C-11.33 18 -11.66 18 -12 18 C-11.92913203 14.92690707 -11.7293609 11.99252488 -11 9 C-8.8125 7.3125 -8.8125 7.3125 -6 6 C-3.88636288 4.09474964 -1.9680313 2.05956764 0 0 Z " fill="#02359D" transform="translate(795,694)"/>
<path d="M0 0 C2.92124837 4.38187256 3.18452134 6.65009853 3.25 11.9375 C3.27578125 13.18402344 3.3015625 14.43054688 3.328125 15.71484375 C3 19 3 19 1.609375 20.94140625 C0 22 0 22 -2 22 C-1.34 14.74 -0.68 7.48 0 0 Z " fill="#376ED7" transform="translate(380,397)"/>
<path d="M0 0 C0.33 0 0.66 0 1 0 C1.12276617 9.73944972 0.83779436 19.29056184 0 29 C-1.65238888 26.09478202 -2.25541594 23.99877808 -2.265625 20.6640625 C-2.26820313 19.84679687 -2.27078125 19.02953125 -2.2734375 18.1875 C-2.26570312 17.341875 -2.25796875 16.49625 -2.25 15.625 C-2.25773438 14.78710938 -2.26546875 13.94921875 -2.2734375 13.0859375 C-2.25847237 8.3270257 -1.83459313 4.47000073 0 0 Z " fill="#C4CFE2" transform="translate(534,612)"/>
<path d="M0 0 C1.11572676 3.62611197 0.84819769 6.04840154 -0.56640625 9.62890625 C-3.71145814 14.83066782 -8.56070987 18.89987465 -13 23 C-13.66 22.67 -14.32 22.34 -15 22 C-14.50371094 21.58492187 -14.00742187 21.16984375 -13.49609375 20.7421875 C-6.89773373 14.75733724 -3.59012579 7.98802988 0 0 Z " fill="#1644A6" transform="translate(849,625)"/>
<path d="M0 0 C3.18900636 -0.35433404 4.56865557 -0.32042729 7.1875 1.625 C9.24285267 4.31822075 10.11315939 6.74825111 11 10 C8 10 8 10 5.95703125 8.06640625 C5.24933594 7.24011719 4.54164063 6.41382813 3.8125 5.5625 C3.09707031 4.73878906 2.38164063 3.91507813 1.64453125 3.06640625 C0 1 0 1 0 0 Z " fill="#6E87B6" transform="translate(643,754)"/>
<path d="M0 0 C0.33 0 0.66 0 1 0 C1 3.3 1 6.6 1 10 C-0.65 10 -2.3 10 -4 10 C-4 7.36 -4 4.72 -4 2 C-2.68 2 -1.36 2 0 2 C0 1.34 0 0.68 0 0 Z " fill="#B0BEDC" transform="translate(780,315)"/>
<path d="M0 0 C0.33 0 0.66 0 1 0 C2.22435268 8.49061967 2.56635149 15.44857775 -2 23 C-2.66 23.33 -3.32 23.66 -4 24 C-3.5900395 21.06194977 -3.19555607 18.44611229 -2 15.71875 C-0.81068933 12.48531162 -0.58309818 9.62111997 -0.375 6.1875 C-0.30023437 5.02605469 -0.22546875 3.86460937 -0.1484375 2.66796875 C-0.09945312 1.78753906 -0.05046875 0.90710938 0 0 Z " fill="#0346BE" transform="translate(850,616)"/>
<path d="M0 0 C0.33 0 0.66 0 1 0 C1 2.64 1 5.28 1 8 C0.34 7.34 -0.32 6.68 -1 6 C-3.31 8.31 -5.62 10.62 -8 13 C-8.66 12.34 -9.32 11.68 -10 11 C-9.44570313 10.45730469 -8.89140625 9.91460938 -8.3203125 9.35546875 C-7.23363281 8.28232422 -7.23363281 8.28232422 -6.125 7.1875 C-5.40570312 6.47980469 -4.68640625 5.77210938 -3.9453125 5.04296875 C-1.84641063 2.95600806 -1.84641063 2.95600806 0 0 Z " fill="#637CAF" transform="translate(781,706)"/>
<path d="M0 0 C3.45101522 4.24740335 6.73279209 8.61105071 10 13 C9.01 14.485 9.01 14.485 8 16 C0 5.86163522 0 5.86163522 0 0 Z " fill="#99A9CC" transform="translate(535,630)"/>
<path d="M0 0 C4.2742558 1.5830577 6.26531794 4.50568404 9 8 C7.68 8.33 6.36 8.66 5 9 C0 3.375 0 3.375 0 0 Z " fill="#677FAD" transform="translate(608,713)"/>
<path d="M0 0 C7.26 0 14.52 0 22 0 C22 0.33 22 0.66 22 1 C12.595 1.495 12.595 1.495 3 2 C2.67 2.66 2.34 3.32 2 4 C1.34 2.68 0.68 1.36 0 0 Z " fill="#C9D7EC" transform="translate(620,753)"/>
<path d="M0 0 C5.95918367 5.95918367 5.95918367 5.95918367 6.125 10.1875 C6.08375 11.115625 6.0425 12.04375 6 13 C4 11 4 11 3 8 C2.67 9.65 2.34 11.3 2 13 C1.67 13 1.34 13 1 13 C0.67 8.71 0.34 4.42 0 0 Z " fill="#B4C2DC" transform="translate(768,487)"/>
<path d="M0 0 C0.33 0.99 0.66 1.98 1 3 C-0.21484375 4.82421875 -0.21484375 4.82421875 -1.9375 6.6875 C-2.50339844 7.31011719 -3.06929687 7.93273437 -3.65234375 8.57421875 C-4.09707031 9.04472656 -4.54179688 9.51523437 -5 10 C-5.66 9.01 -6.32 8.02 -7 7 C-4.69 4.69 -2.38 2.38 0 0 Z " fill="#0340AD" transform="translate(845,638)"/>
<path d="M0 0 C0.99 0.33 1.98 0.66 3 1 C0.36 3.97 -2.28 6.94 -5 10 C-5.66 8.68 -6.32 7.36 -7 6 C-5.90716423 4.96704564 -4.80029421 3.94892165 -3.6875 2.9375 C-3.07261719 2.36902344 -2.45773437 1.80054688 -1.82421875 1.21484375 C-0.92123047 0.61349609 -0.92123047 0.61349609 0 0 Z " fill="#033EA9" transform="translate(814,673)"/>
<path d="M0 0 C0.33 0.99 0.66 1.98 1 3 C-2.3 6.3 -5.6 9.6 -9 13 C-9.66 12.67 -10.32 12.34 -11 12 C-10.54109375 11.55269531 -10.0821875 11.10539063 -9.609375 10.64453125 C-6.16447701 7.25029352 -2.92744915 3.86423288 0 0 Z " fill="#D7ECDD" transform="translate(741,726)"/>
<path d="M0 0 C3.81684226 1.55500981 6.19195732 4.03595495 9 7 C8.34 8.65 7.68 10.3 7 12 C6.67 12 6.34 12 6 12 C5.62875 10.4221875 5.62875 10.4221875 5.25 8.8125 C4.23299214 5.1866459 2.54626571 2.80089228 0 0 Z " fill="#1B5ECD" transform="translate(396,465)"/>
<path d="M0 0 C-0.33 1.32 -0.66 2.64 -1 4 C-2.875 4.625 -2.875 4.625 -5 5 C-5.66 4.34 -6.32 3.68 -7 3 C-2.25 0 -2.25 0 0 0 Z " fill="#04369A" transform="translate(808,681)"/>
<path d="M0 0 C0.99 0.33 1.98 0.66 3 1 C3.6875 3.25 3.6875 3.25 4 6 C3.01 7.32 2.02 8.64 1 10 C0.67 6.7 0.34 3.4 0 0 Z " fill="#B4C0D9" transform="translate(650,298)"/>
<path d="M0 0 C0.66 0.33 1.32 0.66 2 1 C-0.64 3.97 -3.28 6.94 -6 10 C-6.66 9.67 -7.32 9.34 -8 9 C-5.36 6.03 -2.72 3.06 0 0 Z " fill="#193F94" transform="translate(793,693)"/>
<path d="M0 0 C3.5786304 1.65167557 6.74820188 3.78286492 10 6 C9.01 6.66 8.02 7.32 7 8 C5.83035398 6.8572081 4.66435444 5.71068285 3.5 4.5625 C2.8503125 3.92441406 2.200625 3.28632813 1.53125 2.62890625 C0 1 0 1 0 0 Z " fill="#2A69D7" transform="translate(298,481)"/>
<path d="M0 0 C3.68754757 0.49831724 5.60490662 1.10067643 8 4 C5 5 5 5 2.3125 3.6875 C1.549375 3.130625 0.78625 2.57375 0 2 C0 1.34 0 0.68 0 0 Z " fill="#1A56C6" transform="translate(306,488)"/>
</svg>
